<svg width="1132" height="510" viewBox="0 0 1132 510" fill="none" xmlns="http://www.w3.org/2000/svg">
<rect x="28" y="11" width="200" height="455" fill="#8C887E"/>
<rect x="43" y="30" width="19" height="35" rx="4" fill="#D9D9D9"/>
<rect x="80" y="30" width="19" height="35" rx="4" fill="#D9D9D9"/>
<rect x="120" y="30" width="19" height="35" rx="4" fill="#D9D9D9"/>
<rect x="157" y="30" width="19" height="35" rx="4" fill="#D9D9D9"/>
<rect x="194" y="30" width="19" height="35" rx="4" fill="#D9D9D9"/>
<rect x="43" y="88" width="19" height="35" rx="4" fill="#D9D9D9"/>
<rect x="80" y="88" width="19" height="35" rx="4" fill="#D9D9D9"/>
<rect x="120" y="88" width="19" height="35" rx="4" fill="#D9D9D9"/>
<rect x="157" y="88" width="19" height="35" rx="4" fill="#D9D9D9"/>
<rect x="194" y="88" width="19" height="35" rx="4" fill="#D9D9D9"/>
<rect x="43" y="146" width="19" height="35" rx="4" fill="#D9D9D9"/>
<rect x="80" y="146" width="19" height="35" rx="4" fill="#D9D9D9"/>
<rect x="120" y="146" width="19" height="35" rx="4" fill="#D9D9D9"/>
<rect x="157" y="146" width="19" height="35" rx="4" fill="#D9D9D9"/>
<rect x="194" y="146" width="19" height="35" rx="4" fill="#D9D9D9"/>
<rect x="43" y="204" width="19" height="35" rx="4" fill="#D9D9D9"/>
<rect x="80" y="204" width="19" height="35" rx="4" fill="#D9D9D9"/>
<rect x="120" y="204" width="19" height="35" rx="4" fill="#D9D9D9"/>
<rect x="157" y="204" width="19" height="35" rx="4" fill="#D9D9D9"/>
<rect x="194" y="204" width="19" height="35" rx="4" fill="#D9D9D9"/>
<rect x="43" y="262" width="19" height="35" rx="4" fill="#D9D9D9"/>
<rect x="80" y="262" width="19" height="35" rx="4" fill="#D9D9D9"/>
<rect x="120" y="262" width="19" height="35" rx="4" fill="#D9D9D9"/>
<rect x="43" y="320" width="19" height="35" rx="4" fill="#D9D9D9"/>
<rect x="80" y="320" width="19" height="35" rx="4" fill="#D9D9D9"/>
<rect x="120" y="320" width="19" height="35" rx="4" fill="#D9D9D9"/>
<path d="M230.652 64.8159C220.331 81.8093 186.396 98.191 168.612 104.355C165.06 79.382 164.775 48.0663 175.097 31.073C185.418 14.0796 206.221 7.8574 221.563 17.1753C236.904 26.4931 240.973 47.8226 230.652 64.8159Z" fill="#D4A373"/>
<ellipse cx="204.691" cy="44.953" rx="24.5" ry="26.5" transform="rotate(31.2734 204.691 44.953)" fill="white"/>
<rect x="146" y="126" width="200" height="372" fill="#BBB4A2"/>
<rect x="161" y="149" width="19" height="35" rx="4" fill="#D9D9D9"/>
<rect x="198" y="149" width="19" height="35" rx="4" fill="#D9D9D9"/>
<rect x="238" y="149" width="19" height="35" rx="4" fill="#D9D9D9"/>
<rect x="275" y="149" width="19" height="35" rx="4" fill="#D9D9D9"/>
<rect x="312" y="149" width="19" height="35" rx="4" fill="#D9D9D9"/>
<rect x="161" y="207" width="19" height="35" rx="4" fill="#D9D9D9"/>
<rect x="198" y="207" width="19" height="35" rx="4" fill="#D9D9D9"/>
<rect x="238" y="207" width="19" height="35" rx="4" fill="#D9D9D9"/>
<rect x="275" y="207" width="19" height="35" rx="4" fill="#D9D9D9"/>
<rect x="312" y="207" width="19" height="35" rx="4" fill="#D9D9D9"/>
<rect x="161" y="265" width="19" height="35" rx="4" fill="#D9D9D9"/>
<rect x="198" y="265" width="19" height="35" rx="4" fill="#D9D9D9"/>
<rect x="238" y="265" width="19" height="35" rx="4" fill="#D9D9D9"/>
<rect x="275" y="265" width="19" height="35" rx="4" fill="#D9D9D9"/>
<rect x="312" y="265" width="19" height="35" rx="4" fill="#D9D9D9"/>
<rect x="161" y="323" width="19" height="35" rx="4" fill="#D9D9D9"/>
<rect x="198" y="323" width="19" height="35" rx="4" fill="#D9D9D9"/>
<rect x="238" y="323" width="19" height="35" rx="4" fill="#D9D9D9"/>
<rect x="275" y="323" width="19" height="35" rx="4" fill="#D9D9D9"/>
<rect x="312" y="323" width="19" height="35" rx="4" fill="#D9D9D9"/>
<rect x="161" y="381" width="19" height="35" rx="4" fill="#D9D9D9"/>
<rect x="198" y="381" width="19" height="35" rx="4" fill="#D9D9D9"/>
<rect x="238" y="381" width="19" height="35" rx="4" fill="#D9D9D9"/>
<rect x="275" y="381" width="19" height="35" rx="4" fill="#D9D9D9"/>
<rect x="312" y="381" width="19" height="35" rx="4" fill="#D9D9D9"/>
<rect x="161" y="439" width="19" height="35" rx="4" fill="#D9D9D9"/>
<rect x="198" y="439" width="19" height="35" rx="4" fill="#D9D9D9"/>
<rect x="238" y="439" width="19" height="35" rx="4" fill="#D9D9D9"/>
<rect x="275" y="439" width="19" height="35" rx="4" fill="#D9D9D9"/>
<rect x="312" y="439" width="19" height="35" rx="4" fill="#D9D9D9"/>
<rect x="927" y="48" width="200" height="455" fill="#BBB4A2"/>
<rect x="942" y="66" width="19" height="35" rx="4" fill="#D9D9D9"/>
<rect x="979" y="66" width="19" height="35" rx="4" fill="#D9D9D9"/>
<rect x="1019" y="66" width="19" height="35" rx="4" fill="#D9D9D9"/>
<rect x="1056" y="66" width="19" height="35" rx="4" fill="#D9D9D9"/>
<rect x="1093" y="66" width="19" height="35" rx="4" fill="#D9D9D9"/>
<rect x="942" y="124" width="19" height="35" rx="4" fill="#D9D9D9"/>
<rect x="979" y="124" width="19" height="35" rx="4" fill="#D9D9D9"/>
<rect x="1019" y="124" width="19" height="35" rx="4" fill="#D9D9D9"/>
<rect x="1056" y="124" width="19" height="35" rx="4" fill="#D9D9D9"/>
<rect x="1093" y="124" width="19" height="35" rx="4" fill="#D9D9D9"/>
<rect x="942" y="182" width="19" height="35" rx="4" fill="#D9D9D9"/>
<rect x="979" y="182" width="19" height="35" rx="4" fill="#D9D9D9"/>
<rect x="1019" y="182" width="19" height="35" rx="4" fill="#D9D9D9"/>
<rect x="1056" y="182" width="19" height="35" rx="4" fill="#D9D9D9"/>
<rect x="1093" y="182" width="19" height="35" rx="4" fill="#D9D9D9"/>
<rect x="942" y="240" width="19" height="35" rx="4" fill="#D9D9D9"/>
<rect x="979" y="240" width="19" height="35" rx="4" fill="#D9D9D9"/>
<rect x="1019" y="240" width="19" height="35" rx="4" fill="#D9D9D9"/>
<rect x="1056" y="240" width="19" height="35" rx="4" fill="#D9D9D9"/>
<rect x="1093" y="240" width="19" height="35" rx="4" fill="#D9D9D9"/>
<rect x="942" y="298" width="19" height="35" rx="4" fill="#D9D9D9"/>
<rect x="979" y="298" width="19" height="35" rx="4" fill="#D9D9D9"/>
<rect x="1019" y="298" width="19" height="35" rx="4" fill="#D9D9D9"/>
<rect x="1056" y="298" width="19" height="35" rx="4" fill="#D9D9D9"/>
<rect x="1093" y="298" width="19" height="35" rx="4" fill="#D9D9D9"/>
<rect x="1019" y="356" width="19" height="35" rx="4" fill="#D9D9D9"/>
<rect x="1056" y="356" width="19" height="35" rx="4" fill="#D9D9D9"/>
<rect x="1093" y="356" width="19" height="35" rx="4" fill="#D9D9D9"/>
<rect x="1019" y="410" width="19" height="35" rx="4" fill="#D9D9D9"/>
<rect x="1056" y="410" width="19" height="35" rx="4" fill="#D9D9D9"/>
<rect x="1093" y="410" width="19" height="35" rx="4" fill="#D9D9D9"/>
<rect x="1019" y="468" width="19" height="35" rx="4" fill="#D9D9D9"/>
<rect x="1056" y="468" width="19" height="35" rx="4" fill="#D9D9D9"/>
<rect x="1093" y="468" width="19" height="35" rx="4" fill="#D9D9D9"/>
<rect x="803" y="207" width="200" height="299" fill="#8C887E"/>
<rect x="818" y="221" width="19" height="29" rx="4" fill="#D9D9D9"/>
<rect x="855" y="221" width="19" height="29" rx="4" fill="#D9D9D9"/>
<rect x="895" y="221" width="19" height="29" rx="4" fill="#D9D9D9"/>
<rect x="932" y="221" width="19" height="29" rx="4" fill="#D9D9D9"/>
<rect x="969" y="221" width="19" height="29" rx="4" fill="#D9D9D9"/>
<rect x="818" y="269" width="19" height="29" rx="4" fill="#D9D9D9"/>
<rect x="855" y="269" width="19" height="29" rx="4" fill="#D9D9D9"/>
<rect x="895" y="269" width="19" height="29" rx="4" fill="#D9D9D9"/>
<rect x="932" y="269" width="19" height="29" rx="4" fill="#D9D9D9"/>
<rect x="969" y="269" width="19" height="29" rx="4" fill="#D9D9D9"/>
<rect x="818" y="317" width="19" height="30" rx="4" fill="#D9D9D9"/>
<rect x="855" y="317" width="19" height="30" rx="4" fill="#D9D9D9"/>
<rect x="895" y="317" width="19" height="30" rx="4" fill="#D9D9D9"/>
<rect x="932" y="317" width="19" height="30" rx="4" fill="#D9D9D9"/>
<rect x="969" y="317" width="19" height="30" rx="4" fill="#D9D9D9"/>
<rect x="818" y="366" width="19" height="29" rx="4" fill="#D9D9D9"/>
<rect x="855" y="366" width="19" height="29" rx="4" fill="#D9D9D9"/>
<rect x="895" y="366" width="19" height="29" rx="4" fill="#D9D9D9"/>
<rect x="932" y="366" width="19" height="29" rx="4" fill="#D9D9D9"/>
<rect x="969" y="366" width="19" height="29" rx="4" fill="#D9D9D9"/>
<rect x="818" y="414" width="19" height="29" rx="4" fill="#D9D9D9"/>
<rect x="855" y="414" width="19" height="29" rx="4" fill="#D9D9D9"/>
<rect x="895" y="414" width="19" height="29" rx="4" fill="#D9D9D9"/>
<rect x="932" y="414" width="19" height="29" rx="4" fill="#D9D9D9"/>
<rect x="969" y="414" width="19" height="29" rx="4" fill="#D9D9D9"/>
<rect x="818" y="462" width="19" height="29" rx="4" fill="#D9D9D9"/>
<rect x="855" y="462" width="19" height="29" rx="4" fill="#D9D9D9"/>
<rect x="895" y="462" width="19" height="29" rx="4" fill="#D9D9D9"/>
<rect x="932" y="462" width="19" height="29" rx="4" fill="#D9D9D9"/>
<rect x="969" y="462" width="19" height="29" rx="4" fill="#D9D9D9"/>
<path d="M865 194C865 213.882 844.5 245.5 832.5 260C816.5 240.5 800 213.882 800 194C800 174.118 814.551 158 832.5 158C850.449 158 865 174.118 865 194Z" fill="#495A13"/>
<ellipse cx="832.5" cy="190.5" rx="24.5" ry="26.5" fill="white"/>
<path d="M66.8952 317.93L142.543 318.296C160.492 318.382 174.899 333.003 174.723 350.951L174.541 369.471C174.412 382.577 166.424 394.362 154.283 399.358L153.597 399.641C150.352 400.976 146.915 401.779 143.419 402.019L100.975 404.931L63.1611 403.216C58.5901 403.009 54.1276 401.787 50.0969 399.64C40.0008 394.26 33.7481 383.711 33.8607 372.248L34.0765 350.271C34.2528 332.323 48.9462 317.843 66.8952 317.93Z" fill="white" stroke="#2C2C2B" stroke-width="15"/>
<path d="M37.4758 348.724C38.3909 332.73 51.7061 320.213 67.7225 320.29L140.066 320.64C156.137 320.717 169.229 333.446 169.756 349.505L170.19 362.718C170.694 378.075 159.515 391.395 144.264 393.374C127.394 395.563 107.594 397.924 100.914 397.892C94.4695 397.861 76.9971 395.489 61.6836 393.215C46.569 390.97 35.8276 377.531 36.7013 362.261L37.4758 348.724Z" fill="#495A13"/>
<path d="M118.397 351.666C108.155 346.602 109.942 329.412 121.391 329.467L149.008 329.6C155.824 329.633 161.295 335.185 161.228 342.001L161.161 348.872C161.028 362.379 145.144 369.844 134.242 361.921C128.233 357.555 122.442 353.666 118.397 351.666V351.666Z" fill="white"/>
<path d="M23.9111 398.71C25.4238 396.482 41.0751 409.859 57.7602 414.41C74.4453 418.96 100.315 415.991 100.315 415.991C100.315 415.991 125.473 417.889 141.24 414.813C157.006 411.737 183.413 399.824 183.413 399.824C185.849 404.821 150.106 425.228 150.106 425.228C150.106 425.228 145.445 474.819 137.789 479.267C130.133 483.714 70.2153 483.771 62.1715 478.901C54.1277 474.032 52.3717 424.756 52.3717 424.756C52.3717 424.756 22.3985 400.938 23.9111 398.71Z" fill="#2C2C2B"/>
<path d="M26.4178 412.082C26.4178 412.082 41.5895 426.379 45.9151 433.769C50.2407 441.159 48.5475 464.286 48.5475 464.286C48.5475 464.286 33.4798 455.987 30.2708 451.002C27.0619 446.017 26.4178 412.082 26.4178 412.082Z" fill="#6E7433"/>
<path d="M176.681 412.808C176.681 412.808 161.23 426.957 156.76 434.304C152.29 441.652 153.528 464.793 153.528 464.793C153.528 464.793 168.758 456.641 172.064 451.687C175.371 446.733 176.681 412.808 176.681 412.808Z" fill="#6E7433"/>
<path d="M25.6717 459.951L58.1025 482.937L95.4513 487.311L135.658 483.312L176.211 460.678C176.211 460.678 175.123 488.358 170.491 494.429C165.86 500.501 33.1396 497.596 28.6055 493.744C24.0714 489.891 25.6717 459.951 25.6717 459.951Z" fill="#3B3B38"/>
<path d="M37.2293 498.767C37.2818 493.414 41.5199 489.021 46.8684 488.775L74.8027 487.488C83.3656 487.093 88.8854 496.374 84.4684 503.74V503.74C82.5025 507.019 78.9532 509.02 75.1388 509.002L47.1823 508.867C41.6309 508.84 37.1748 504.318 37.2293 498.767V498.767Z" fill="#3B3B38"/>
<path d="M112.908 503.502C109.762 496.707 115.009 488.974 122.5 489.367L150.945 490.858C155.881 491.116 159.724 495.207 159.675 500.15V500.15C159.625 505.264 155.438 509.39 150.324 509.365L121.832 509.227C117.993 509.209 114.518 506.98 112.908 503.502V503.502Z" fill="#3B3B38"/>
<path d="M130.111 414.399C130.562 411.873 132.74 410.051 135.295 410.063V410.063C138.605 410.079 141.129 413.108 140.561 416.383L131.998 465.8C131.484 468.765 128.674 470.72 125.722 470.167V470.167C122.759 469.612 120.781 466.743 121.311 463.77L130.111 414.399Z" fill="#FFFCEE"/>
<path d="M133.539 419.826C135.265 419.842 136.739 421.06 137.078 422.751V422.751C137.534 425.029 135.777 427.16 133.452 427.149L92.37 426.95C90.3006 426.94 88.6395 425.255 88.6599 423.185V423.185C88.6803 421.11 90.3838 419.438 92.4592 419.457L133.539 419.826Z" fill="#FFFCEE"/>
<path d="M131.222 441.872C132.991 441.889 134.488 443.167 134.781 444.91V444.91C135.158 447.156 133.412 449.208 131.132 449.197L97.5345 449.034C95.4659 449.024 93.8055 447.339 93.8258 445.271V445.271C93.8462 443.195 95.5509 441.523 97.6265 441.544L131.222 441.872Z" fill="#FFFCEE"/>
<path d="M127.204 465.308C128.855 465.324 130.255 466.513 130.537 468.138V468.138C130.903 470.249 129.265 472.185 127.12 472.175L94.3835 472.017C92.444 472.007 90.8873 470.428 90.9063 468.488V468.488C90.9254 466.542 92.5233 464.975 94.4692 464.994L127.204 465.308Z" fill="#FFFCEE"/>
<path d="M126.328 454.515C128.148 454.535 129.67 455.888 129.904 457.691V457.691C130.19 459.897 128.459 461.856 126.233 461.845L101.444 461.725C99.3773 461.715 97.718 460.032 97.7383 457.964V457.964C97.7587 455.888 99.4653 454.217 101.541 454.24L126.328 454.515Z" fill="#FFFCEE"/>
<path d="M133.471 431.089C135.209 431.105 136.69 432.341 137.016 434.047V434.047C137.449 436.316 135.695 438.424 133.383 438.412L94.5017 438.225C92.4326 438.215 90.7717 436.529 90.792 434.46V434.46C90.8124 432.385 92.5162 430.713 94.5917 430.732L133.471 431.089Z" fill="#FFFCEE"/>
<path d="M50.1064 286.954C57.7681 285.773 153.551 287.453 160.505 287.487C167.459 287.521 171.379 313.282 171.379 313.282L36.8145 312.632C36.8145 312.632 42.4448 288.134 50.1064 286.954Z" fill="#3B3B38"/>
<path d="M158.295 298.575C158.133 298.149 157.712 297.491 157.142 296.713C155.704 294.747 157.847 291.672 160.145 292.482V292.482C165.662 294.427 168.885 311.113 165.659 311.336L147.685 311.826C145.064 311.898 144.72 307.53 147.303 307.064V307.064C159.535 304.857 159.088 300.671 158.295 298.575Z" fill="#FFFCEE"/>
<path d="M43.2504 277.922L166.522 278.517C173.426 278.551 178.967 284.174 178.9 291.077L178.741 307.225L30.4692 306.509L30.6278 290.361C30.6956 283.458 36.347 277.888 43.2504 277.922Z" stroke="#3B3B38" stroke-width="15"/>
<rect width="26.9132" height="6.57081" transform="matrix(0.999987 0.00483052 -0.00982069 0.99995 9.90155 312.502)" fill="#2C2C2B"/>
<rect width="26.9132" height="6.57081" transform="matrix(0.999987 0.00483052 -0.00982069 0.99995 173.622 313.292)" fill="#2C2C2B"/>
<path d="M24.7607 398.692L28.5116 381.585" stroke="#2C2C2B" stroke-width="10"/>
<path d="M25.2312 395.884L9.06434 374.92" stroke="#2C2C2B" stroke-width="15"/>
<path d="M181.765 397.579L198.409 376.43" stroke="#2C2C2B" stroke-width="15"/>
<path d="M182.431 400.524L179.203 384.425" stroke="#2C2C2B" stroke-width="10"/>
<line y1="-5" x2="10.7949" y2="-5" transform="matrix(-0.00982069 0.99995 -0.999987 -0.00483052 9.86926 315.787)" stroke="#2C2C2B" stroke-width="10"/>
<line y1="-5" x2="10.7949" y2="-5" transform="matrix(-0.00982069 0.99995 -0.999987 -0.00483052 196.035 314.809)" stroke="#2C2C2B" stroke-width="10"/>
<rect width="19.7364" height="53.9745" rx="9.86819" transform="matrix(0.999987 0.00483052 -0.00982069 0.99995 1.25928 324.663)" fill="#2C2C2B"/>
<rect width="19.7364" height="53.9745" rx="9.86819" transform="matrix(0.999987 0.00483052 -0.00982069 0.99995 188.304 325.566)" fill="#2C2C2B"/>
</svg>
