<svg width="195" height="114" viewBox="0 0 195 114" fill="none" xmlns="http://www.w3.org/2000/svg">
<path d="M173 98C173 104.351 171.127 108.5 164.5 108.5C157.873 108.5 157 104.351 157 98C157 91.6487 157.873 85 164.5 85C171.127 85 173 91.6487 173 98Z" fill="#2C2C2B"/>
<rect x="169" y="49" width="12" height="13" rx="5" fill="#5A330C"/>
<path d="M58 101.83C58 107.999 52.6274 113 46 113C39.3726 113 34 107.999 34 101.83C34 95.6606 39.3726 88 46 88C52.6274 88 58 95.6606 58 101.83Z" fill="#2C2C2B"/>
<path d="M119 101.17C119 107.116 116.542 111 107.844 111C99.1453 111 98 107.116 98 101.17C98 95.2243 99.1453 89 107.844 89C116.542 89 119 95.2243 119 101.17Z" fill="#2C2C2B"/>
<path d="M20.4286 82H167V104C167 104 28.1429 104 20.4286 104C12.7143 104 20.4286 82 20.4286 82Z" fill="#2C2C2B"/>
<path d="M150.5 31.2769L96.5 89.7221V0.549836L150.5 5.6882V31.2769Z" fill="url(#paint0_linear_99_259)" stroke="#8C887E"/>
<path d="M12.5 88.5V5.47393L95.5 1.0275V88.5H12.5Z" fill="url(#paint1_linear_99_259)" stroke="#8C887E"/>
<path d="M104.936 35.6013C105.966 33.7874 108.01 32.4582 110.928 31.5088C113.838 30.5619 117.542 30.0177 121.778 29.7176C127.852 29.2872 134.944 29.3618 142.258 29.4387C145.154 29.4692 148.084 29.5001 151 29.5C156.066 29.5 159.693 30.3956 162.535 32.0054C165.377 33.6155 167.481 35.9665 169.458 38.9629C170.833 41.048 172.13 43.4155 173.57 46.0452C174.21 47.2144 174.879 48.4354 175.596 49.7065C177.915 53.8203 180.711 58.4077 184.609 63.3111C192.257 72.9328 192.714 82.1283 190.576 88.7128C189.503 92.0152 187.779 94.6598 185.978 96.3797C184.148 98.1283 182.355 98.8207 181.12 98.5147C180.697 98.4099 180.04 98.3412 179.212 98.2955C178.373 98.2492 177.326 98.225 176.104 98.2189C173.659 98.2066 170.495 98.2663 166.866 98.3683C162.292 98.497 156.968 98.6933 151.396 98.8988C148.126 99.0193 144.77 99.1431 141.432 99.2581C132.398 99.5693 123.483 99.817 116.672 99.7686C113.265 99.7444 110.397 99.6461 108.308 99.4465C107.262 99.3465 106.428 99.2226 105.826 99.0749C105.524 99.001 105.295 98.9246 105.133 98.8497C105.053 98.8126 104.996 98.7792 104.957 98.7516C104.92 98.7251 104.908 98.7097 104.908 98.7094L104.908 98.7095C104.811 98.5728 104.675 98.2447 104.524 97.6688C104.379 97.1137 104.235 96.3866 104.094 95.505C103.812 93.7431 103.549 91.3976 103.316 88.6461C102.85 83.145 102.509 76.0498 102.385 68.8147C102.262 61.5789 102.356 54.2129 102.76 48.1685C102.962 45.1457 103.241 42.4619 103.606 40.2939C103.975 38.1082 104.423 36.5051 104.936 35.6013Z" fill="url(#paint2_linear_99_259)" stroke="#8A5725"/>
<path d="M137 89H191C191 89 193 101 187 101C181 101 141 101 141 101C140.711 96.5792 139.787 93.9395 137 89Z" fill="#D9D9D9"/>
<path d="M149 93H190.753C190.753 93 192.299 98 187.66 98C183.021 98 152.093 98 152.093 98C151.87 96.158 151.155 95.0581 149 93Z" fill="#3B3B38"/>
<path d="M110 44C110 42.3431 111.343 41 113 41H124.719C125.956 41 127.066 41.759 127.515 42.9116L131.408 52.9116C132.174 54.8784 130.723 57 128.613 57H113C111.343 57 110 55.6569 110 54V44Z" fill="#D9D9D9"/>
<path d="M128.421 45.0034C127.728 43.0507 129.176 41 131.248 41H168.394C169.432 41 170.395 41.5359 170.943 42.4172L177.154 52.4172C178.395 54.4156 176.958 57 174.605 57H134.797C133.527 57 132.395 56.2003 131.97 55.0034L128.421 45.0034Z" fill="url(#paint3_linear_99_259)"/>
<path d="M128.495 42.5934C122.995 36.0934 113.894 31.7849 104.495 36.0934" stroke="#8A5725"/>
<rect x="124" y="52" width="9" height="13" rx="4.5" fill="#5A330C"/>
<rect x="124" y="51" width="9" height="13" rx="4.5" fill="#8A5725"/>
<rect width="5.39602" height="13.999" rx="2.69801" transform="matrix(0.0156958 0.999877 -0.999914 0.0131309 154.998 80)" fill="#2C2C2B"/>
<path d="M191.295 80.0788C192.788 80.0788 194 81.2908 194 82.7834V82.7834C194 84.2706 192.796 85.4741 191.309 85.4741L190.747 85.4741C189.271 85.4741 188.066 84.2878 188.043 82.8119V82.8119C188.019 81.3083 189.23 80.0788 190.734 80.0788L191.295 80.0788Z" fill="#2C2C2B"/>
<path d="M133 57C141.089 61.0921 144.92 63.4845 150 68.0001" stroke="#8A5725"/>
<path d="M150 68C154.952 76.317 157.016 81.469 158.464 88.8142" stroke="#8A5725"/>
<path d="M49 102.314C49 108.216 45.6421 113 41.5 113C37.3579 113 34 108.216 34 102.314C34 96.4127 37.3579 91 41.5 91C45.6421 91 49 96.4127 49 102.314Z" fill="#5A330C"/>
<path d="M47 102.257C47 107.086 44.3137 111 41 111C37.6863 111 35 107.086 35 102.257C35 97.4286 37.6863 93 41 93C44.3137 93 47 97.4286 47 102.257Z" fill="#E9EDC9"/>
<path d="M143 102.83C143 108.999 138.523 114 133 114C127.477 114 123 108.999 123 102.83C123 96.6606 127.477 89 133 89C138.523 89 143 96.6606 143 102.83Z" fill="#2C2C2B"/>
<path d="M140 102.314C140 108.216 136.642 113 132.5 113C128.358 113 125 108.216 125 102.314C125 96.4127 128.358 91 132.5 91C136.642 91 140 96.4127 140 102.314Z" fill="#5A330C"/>
<path d="M138 102.257C138 107.086 135.314 111 132 111C128.686 111 126 107.086 126 102.257C126 97.4286 128.686 93 132 93C135.314 93 138 97.4286 138 102.257Z" fill="#E9EDC9"/>
<circle cx="133.5" cy="97.5" r="12.5" fill="#E9EDC9" fill-opacity="0.19"/>
<path d="M121 99C121 99 108.782 100.402 105.936 98.4524C103.091 96.5031 103 73.5 103 73.5L121 99Z" fill="#D4A373"/>
<path d="M117.5 99C117.5 99 107.827 100.129 106 98.5C104.173 96.8705 103.5 81 103.5 81L117.5 99Z" fill="#FFFCEE"/>
<path d="M95 88.4999C95 88.4999 17.3453 89.4493 14.4999 87.4999C11.6546 85.5506 13 43.5 13 43.5C63.9824 53.1825 100.464 71.4495 95 88.4999Z" fill="#D4A373"/>
<path d="M87.0001 89C87.0001 89 16.7681 88.6054 14.9415 86.9759C13.1149 85.3465 13.5 62 13.5 62C55.6021 68.0676 75.4947 72.7099 87.0001 89Z" fill="#FFFCEE"/>
<path d="M107 78.213L117 92.5207" stroke="#8A5725" stroke-linecap="round"/>
<rect x="12" y="82" width="84" height="9" fill="#D9D9D9"/>
<defs>
<linearGradient id="paint0_linear_99_259" x1="123.5" y1="-7.20496e-07" x2="143.5" y2="65" gradientUnits="userSpaceOnUse">
<stop stop-color="#FFFCEE"/>
<stop offset="1" stop-color="#99978F"/>
</linearGradient>
<linearGradient id="paint1_linear_99_259" x1="96" y1="1.00001" x2="12" y2="89" gradientUnits="userSpaceOnUse">
<stop offset="0.042818" stop-color="#FFFCEE"/>
<stop offset="1" stop-color="#99978F"/>
</linearGradient>
<linearGradient id="paint2_linear_99_259" x1="149.5" y1="39" x2="140.5" y2="98" gradientUnits="userSpaceOnUse">
<stop stop-color="#E9EDC9"/>
<stop offset="0.24" stop-color="#D4A373"/>
<stop offset="1" stop-color="#6E553C"/>
</linearGradient>
<linearGradient id="paint3_linear_99_259" x1="127" y1="49" x2="180" y2="49" gradientUnits="userSpaceOnUse">
<stop offset="0.4" stop-color="white"/>
<stop offset="1" stop-color="#999999"/>
</linearGradient>
</defs>
</svg>
