<svg width="1498" height="512" viewBox="0 0 1498 512" fill="none" xmlns="http://www.w3.org/2000/svg">
<path d="M451.069 271.97C414.342 215.79 574.99 179.676 574.46 206.071C573.929 232.467 516.318 312.861 734.292 336.643C821.287 343.319 887.917 367.031 823.115 403.354C758.314 439.677 192.747 495.834 451.069 271.97Z" fill="#CCD5AE"/>
<path d="M451.069 271.97C414.342 215.79 574.99 179.676 574.46 206.071C573.929 232.467 516.318 312.861 734.292 336.643M451.069 271.97C490.559 315.996 526.541 357.921 734.292 336.643M451.069 271.97C192.747 495.834 758.314 439.677 823.115 403.354C887.917 367.031 821.287 343.319 734.292 336.643" stroke="#CCD5AE"/>
<path d="M1418.59 324.172C1440.03 377.76 1289.72 391.733 1290.85 358.246C1291.97 324.758 1370.51 278.569 1190.77 221.202C1118.56 200.677 1066.4 169.299 1127.18 149.822C1187.97 130.346 1674.29 179.967 1418.59 324.172Z" fill="#CCD5AE"/>
<path d="M1418.59 324.172C1440.03 377.76 1289.72 391.733 1290.85 358.246C1291.97 324.758 1370.51 278.569 1190.77 221.202M1418.59 324.172C1392.75 280.342 1369.52 238.883 1190.77 221.202M1418.59 324.172C1674.29 179.967 1187.97 130.346 1127.18 149.822C1066.4 169.299 1118.56 200.677 1190.77 221.202" stroke="#CCD5AE"/>
<path d="M507.834 270.233C507.233 270.008 505.778 269.67 503.469 269.219C501.221 268.7 498.163 268.261 494.294 267.903C490.49 267.541 486.378 267.49 481.958 267.751C468.505 268.546 458.429 274.065 451.73 284.309C445.092 294.484 442.316 308.767 443.403 327.16C444.425 344.447 449.09 357.183 457.4 365.366C465.709 373.549 476.396 377.254 489.459 376.482C495.698 376.114 501.704 374.552 507.476 371.798C513.248 369.044 518.163 366.145 522.223 363.101C526.347 360.053 528.401 358.399 528.386 358.139L537.146 370.632C537.169 371.022 534.885 373.211 530.295 377.2C525.766 381.12 519.889 384.858 512.664 388.416C505.439 391.973 497.375 394.015 488.471 394.541C468.259 395.735 452.215 390.748 440.337 379.58C428.46 368.412 421.865 351.715 420.551 329.488C419.657 314.345 421.607 300.991 426.402 289.425C431.193 277.794 438.412 268.628 448.06 261.928C457.773 255.224 469.42 251.47 483.003 250.668C489.503 250.284 496.111 250.643 502.828 251.746C509.607 252.781 515.584 254.058 520.761 255.578C525.934 257.033 528.524 257.826 528.532 257.956L529.562 291.939L514.549 292.826L507.834 270.233ZM554.403 288.514C555.42 288.063 557.971 287.097 562.058 285.616C566.205 284.067 571.104 282.539 576.754 281.031C582.401 279.458 587.758 278.522 592.828 278.222C604.916 277.508 614.222 279.371 620.745 283.812C627.333 288.249 630.954 295.992 631.607 307.04L635.201 367.871L651.425 370.924L652.075 381.94L621.132 384.746L616.117 371.053C612.081 375.596 607.33 379.627 601.864 383.146C596.459 386.595 590.604 388.506 584.3 388.879C574.877 389.436 567.379 387.27 561.808 382.382C556.232 377.429 553.164 370.208 552.604 360.719C551.951 349.67 555.449 341.54 563.098 336.327C570.742 331.049 581.941 327.975 596.694 327.103L612.682 326.158L611.737 310.171C611.392 304.321 609.504 299.965 606.074 297.103C602.644 294.24 597.842 292.991 591.667 293.356C588.093 293.567 584.824 293.989 581.862 294.62C578.899 295.252 576.554 295.847 574.826 296.406C573.163 296.96 572.14 297.314 571.758 297.467L569.818 312.647L556.852 313.413L554.403 288.514ZM599.507 339.948C589.629 340.531 582.623 342.282 578.491 345.2C574.424 348.114 572.568 352.561 572.921 358.54C573.19 363.09 574.704 366.652 577.465 369.228C580.226 371.804 583.881 372.958 588.431 372.689C592.85 372.428 596.971 370.978 600.793 368.339C604.616 365.7 607.842 362.901 610.471 359.941C613.101 356.981 614.408 355.372 614.392 355.112L613.448 339.124L599.507 339.948ZM695.485 288.788C699.013 284.47 703.242 280.438 708.172 276.69C713.164 272.873 718.682 270.786 724.727 270.429C727.651 270.257 730.427 270.321 733.053 270.622C735.745 270.92 737.951 271.278 739.671 271.699C741.388 272.054 742.445 272.285 742.843 272.392L743.578 301.403L730.515 302.174L726.704 287.334C720.075 287.726 714.449 289.656 709.828 293.125C705.207 296.594 701.488 300.433 698.672 304.643L702.174 363.914L722.452 367.705L723.103 378.721L666.171 382.085L665.52 371.069L682.189 365.095L677.823 291.201L660.624 288.206L659.979 277.287L692.872 274.366L695.485 288.788ZM868.69 369.141L834.822 372.121L832.589 360.807C824.211 370.237 814.01 375.307 801.987 376.017C788.014 376.843 777.245 372.849 769.681 364.035C762.182 355.217 757.956 342.749 757.004 326.631C755.959 308.954 759.58 294.62 767.865 283.631C776.216 272.637 789.1 266.626 806.518 265.597C813.017 265.213 819.384 265.913 825.62 267.696L823.662 234.551L806.463 231.556L805.812 220.54L842.702 217.383L850.84 355.131L868.039 358.125L868.69 369.141ZM826.611 284.464C826.205 284.227 825.173 283.864 823.514 283.375C821.915 282.818 819.539 282.338 816.385 281.938C813.231 281.537 809.574 281.46 805.415 281.706C785.463 282.884 776.274 296.797 777.848 323.443C778.539 335.142 781.101 344.284 785.534 350.87C790.028 357.387 796.531 360.394 805.045 359.891C810.115 359.591 814.501 358.223 818.205 355.787C821.974 353.347 824.886 350.762 826.942 348.032C829.064 345.298 830.113 343.736 830.09 343.346L826.611 284.464ZM926.328 258.518C941.081 257.646 952.867 261.744 961.685 270.81C970.499 279.811 975.387 292.435 976.347 308.683C977.007 319.861 975.513 329.895 971.864 338.785C968.281 347.67 962.827 354.71 955.503 359.903C948.241 365.028 939.67 367.882 929.792 368.466C914.649 369.361 902.617 365.506 893.695 356.903C884.774 348.3 879.791 335.159 878.746 317.482C878.086 306.303 879.651 296.363 883.441 287.661C887.292 278.89 892.918 272.003 900.318 267C907.715 261.933 916.385 259.106 926.328 258.518ZM926.298 274.563C916.419 275.147 909.3 278.829 904.939 285.608C900.64 292.319 898.875 302.173 899.643 315.171C901.175 341.102 911.269 353.55 929.925 352.512C939.674 351.936 946.562 348.203 950.59 341.313C954.613 334.358 956.232 324.219 955.445 310.896C953.951 285.614 944.235 273.504 926.298 274.563ZM1083 236.25C1082.4 236.025 1080.95 235.687 1078.64 235.236C1076.39 234.717 1073.33 234.278 1069.46 233.92C1065.66 233.558 1061.55 233.507 1057.13 233.768C1043.67 234.563 1033.6 240.082 1026.9 250.326C1020.26 260.501 1017.49 274.784 1018.57 293.177C1019.59 310.464 1024.26 323.2 1032.57 331.383C1040.88 339.566 1051.56 343.271 1064.63 342.499C1070.87 342.131 1076.87 340.569 1082.64 337.815C1088.42 335.061 1093.33 332.162 1097.39 329.118C1101.52 326.07 1103.57 324.416 1103.55 324.156L1112.31 336.649C1112.34 337.039 1110.05 339.229 1105.46 343.217C1100.93 347.137 1095.06 350.875 1087.83 354.433C1080.61 357.99 1072.54 360.032 1063.64 360.558C1043.43 361.752 1027.38 356.765 1015.51 345.597C1003.63 334.429 997.034 317.732 995.72 295.505C994.826 280.362 996.776 267.008 1001.57 255.442C1006.36 243.811 1013.58 234.645 1023.23 227.945C1032.94 221.241 1044.59 217.487 1058.17 216.685C1064.67 216.301 1071.28 216.66 1078 217.763C1084.78 218.798 1090.75 220.075 1095.93 221.595C1101.1 223.05 1103.69 223.843 1103.7 223.973L1104.73 257.956L1089.72 258.843L1083 236.25ZM1172.97 243.946C1187.72 243.074 1199.51 247.171 1208.33 256.237C1217.14 265.238 1222.03 277.863 1222.99 294.11C1223.65 305.289 1222.15 315.323 1218.5 324.212C1214.92 333.098 1209.47 340.137 1202.14 345.331C1194.88 350.456 1186.31 353.31 1176.43 353.894C1161.29 354.788 1149.26 350.934 1140.34 342.331C1131.41 333.727 1126.43 320.587 1125.39 302.909C1124.73 291.731 1126.29 281.791 1130.08 273.088C1133.93 264.317 1139.56 257.431 1146.96 252.428C1154.35 247.361 1163.02 244.533 1172.97 243.946ZM1172.94 259.991C1163.06 260.575 1155.94 264.256 1151.58 271.036C1147.28 277.746 1145.51 287.601 1146.28 300.599C1147.81 326.53 1157.91 338.977 1176.57 337.94C1186.31 337.364 1193.2 333.631 1197.23 326.741C1201.25 319.786 1202.87 309.647 1202.08 296.323C1200.59 271.042 1190.88 258.931 1172.94 259.991ZM1258.79 332.201C1258.8 332.331 1260.48 332.591 1263.83 332.98C1267.17 333.304 1271.12 333.332 1275.67 333.063C1290.68 332.176 1297.91 326.466 1297.35 315.934C1297.1 311.645 1295.06 308.537 1291.23 306.611C1287.46 304.616 1281.63 302.645 1273.76 300.698C1266.54 298.841 1260.66 297.004 1256.12 295.185C1251.63 293.298 1247.72 290.464 1244.36 286.684C1241.01 282.839 1239.14 277.732 1238.76 271.363C1238.17 261.354 1241.1 253.453 1247.54 247.66C1254.04 241.862 1262.69 238.645 1273.48 238.007C1278.16 237.731 1283.02 237.9 1288.08 238.514C1293.2 239.059 1297.55 239.716 1301.11 240.483C1304.74 241.247 1307.02 241.764 1307.95 242.035L1308.96 268.976L1295.99 269.742L1291.85 254.335C1291.46 254.228 1290.56 254.02 1289.18 253.71C1287.85 253.397 1285.98 253.149 1283.56 252.966C1281.13 252.783 1278.46 252.778 1275.53 252.951C1263.71 253.65 1258.05 258.451 1258.58 267.355C1258.83 271.644 1260.91 274.848 1264.82 276.964C1268.79 279.013 1274.68 281.077 1282.5 283.159C1289.53 285.157 1295.32 287.065 1299.86 288.883C1304.4 290.637 1308.31 293.373 1311.6 297.092C1314.88 300.746 1316.69 305.498 1317.04 311.347C1317.69 322.395 1314.03 331.09 1306.06 337.431C1298.08 343.771 1287.79 347.314 1275.19 348.059C1269.73 348.382 1264.64 348.356 1259.92 347.983C1255.2 347.609 1251.43 347.18 1248.59 346.695C1245.76 346.211 1244.01 345.825 1243.34 345.538L1241.6 316L1255.63 315.171L1258.79 332.201ZM1395.52 248.797L1366.56 250.507L1370.35 314.653C1370.83 322.777 1374.39 326.643 1381.02 326.252C1385.31 325.998 1390.41 324.034 1396.32 320.358L1402.3 330.57C1393.66 337.733 1384.53 341.598 1374.91 342.167C1368.15 342.566 1362.5 340.683 1357.95 336.517C1353.46 332.282 1350.91 324.998 1350.3 314.664L1346.58 251.688L1326.59 252.869L1325.83 239.903L1345.7 236.773L1344.21 211.621L1363.96 206.444L1365.68 235.592L1394.64 233.881L1395.52 248.797Z" fill="url(#paint0_linear_71_49)"/>
<path d="M67.0881 125.433C67.2095 107.484 81.8583 93.0324 99.8071 93.1537L366.801 94.959C384.75 95.0804 399.202 109.729 399.081 127.678L398.307 242.013C398.218 255.307 390.041 267.205 377.663 272.055L338.831 287.267C335.698 288.494 332.393 289.228 329.034 289.441L225.65 295.999L130.207 291.659C125.572 291.448 121.037 290.248 116.906 288.138L84.0205 271.35C73.0734 265.761 66.2156 254.475 66.2987 242.184L67.0881 125.433Z" fill="white" stroke="#2C2C2B" stroke-width="15"/>
<path d="M85.3933 135.072C86.2931 119.106 99.5579 106.652 115.549 106.76L347.464 108.329C363.512 108.437 376.632 121.156 377.239 137.193L380.685 228.224C381.269 243.677 370.05 257.033 354.71 258.994C315.408 264.02 244.99 272.639 225.363 272.507C206.043 272.376 142.245 263.132 105.477 257.56C90.2553 255.254 79.3821 241.733 80.2483 226.362L85.3933 135.072Z" fill="#495A13"/>
<path d="M222.826 161.372C204.105 156.501 207.462 126.382 226.806 126.513L343.582 127.303C352.418 127.362 359.533 134.574 359.473 143.411L359.04 207.531C358.949 220.874 343.442 228.361 332.789 220.327C310.963 203.866 280.751 182.037 263.991 174.094C257.167 170.86 241.965 166.351 222.826 161.372Z" fill="white"/>
<path d="M53.7032 273.881C57.0587 269.142 92.0508 297.719 129.281 307.495C166.512 317.271 224.161 311.067 224.161 311.067C224.161 311.067 280.262 315.231 315.387 308.753C350.512 302.275 409.294 277.017 409.294 277.017C414.761 287.677 335.233 330.988 335.233 330.988C335.233 330.988 325.213 436.631 308.178 446.071C291.142 455.51 157.567 455.345 139.599 444.931C121.63 434.517 117.346 329.515 117.346 329.515C117.346 329.515 50.3477 278.62 53.7032 273.881Z" fill="#2C2C2B"/>
<path d="M59.3915 302.385C59.3915 302.385 93.3214 332.921 103.02 348.688C112.718 364.454 109.117 413.724 109.117 413.724C109.117 413.724 75.4638 395.97 68.2727 385.332C61.0815 374.694 59.3915 302.385 59.3915 302.385Z" fill="#6E7433"/>
<path d="M394.384 304.65C394.384 304.65 360.044 334.725 350.133 350.359C340.223 365.993 343.157 415.306 343.157 415.306C343.157 415.306 377.048 398.009 384.382 387.469C391.716 376.93 394.384 304.65 394.384 304.65Z" fill="#6E7433"/>
<path d="M58.087 404.379L130.558 453.512L213.853 463.009L303.458 454.681L393.694 406.648C393.694 406.648 391.475 465.62 381.196 478.535C370.916 491.45 75.0171 484.626 64.8803 476.396C54.7435 468.166 58.087 404.379 58.087 404.379Z" fill="#2C2C2B"/>
<path d="M84.1517 485.836C84.2238 475.169 92.6558 466.435 103.314 465.989L174.425 463.01C190.496 462.337 200.746 479.948 192.224 493.59L188.379 499.744C184.699 505.634 178.227 509.193 171.282 509.147L103.998 508.692C92.9522 508.617 84.0586 499.602 84.1333 488.557L84.1517 485.836Z" fill="#2C2C2B"/>
<path d="M252.163 496.099C245.486 482.401 255.967 466.567 271.184 467.362L338.443 470.875C348.967 471.425 357.196 480.155 357.125 490.692C357.052 501.578 348.167 510.343 337.282 510.269L271.218 509.822C263.619 509.771 256.706 505.417 253.376 498.586L252.163 496.099Z" fill="#2C2C2B"/>
<path d="M290.489 308.291C291.522 302.646 296.449 298.566 302.185 298.605C309.538 298.655 315.09 305.331 313.801 312.575L295.254 416.854C294.082 423.443 287.794 427.817 281.209 426.624C274.6 425.427 270.208 419.08 271.418 412.473L290.489 308.291Z" fill="#FFFCEE"/>
<path d="M298.609 319.402C302.259 319.442 305.394 322.007 306.154 325.577C307.193 330.452 303.456 335.036 298.473 335.003L206.163 334.378C201.753 334.349 198.203 330.75 198.233 326.34C198.263 321.919 201.881 318.363 206.302 318.411L298.609 319.402Z" fill="#FFFCEE"/>
<path d="M293.612 366.364C297.357 366.407 300.543 369.105 301.203 372.791C302.064 377.596 298.351 382.003 293.47 381.97L217.842 381.458C213.434 381.429 209.885 377.831 209.915 373.423C209.945 369.001 213.565 365.446 217.987 365.497L293.612 366.364Z" fill="#FFFCEE"/>
<path d="M284.806 416.282C288.301 416.322 291.28 418.828 291.916 422.265C292.752 426.782 289.267 430.942 284.674 430.911L211.012 430.413C206.88 430.385 203.552 427.013 203.58 422.88C203.608 418.734 207.002 415.401 211.148 415.448L284.806 416.282Z" fill="#FFFCEE"/>
<path d="M282.797 393.282C286.656 393.331 289.9 396.191 290.431 400.013C291.088 404.729 287.406 408.929 282.645 408.897L226.654 408.519C222.249 408.489 218.702 404.894 218.732 400.489C218.762 396.065 222.386 392.511 226.809 392.567L282.797 393.282Z" fill="#FFFCEE"/>
<path d="M298.542 343.401C302.22 343.441 305.37 346.045 306.102 349.649C307.087 354.504 303.357 359.036 298.404 359.003L211 358.412C206.591 358.382 203.041 354.783 203.07 350.374C203.1 345.953 206.719 342.397 211.141 342.446L298.542 343.401Z" fill="#FFFCEE"/>
<path d="M111.264 35.8828C128.336 33.4041 341.879 37.4421 357.383 37.5469C372.886 37.6518 381.818 92.5605 381.818 92.5605L81.8244 90.5321C81.8244 90.5321 94.193 38.3616 111.264 35.8828Z" fill="#2C2C2B"/>
<path d="M352.538 61.1618C352.202 60.3198 351.366 59.0525 350.231 57.55C347.011 53.2885 351.56 46.4761 356.619 48.1891C368.931 52.3582 376.242 87.9281 369.051 88.3883L328.904 89.3481C323.309 89.4818 322.581 80.1372 328.098 79.197C355.352 74.5526 354.323 65.6311 352.538 61.1618Z" fill="#FFFCEE"/>
<path d="M58.7983 20.3748C58.8449 13.4714 64.4791 7.9129 71.3825 7.95958L395.375 10.1502C402.278 10.1969 407.837 15.8311 407.79 22.7345L407.347 88.233L58.3554 85.8733L58.7983 20.3748Z" stroke="#2C2C2B" stroke-width="15"/>
<rect x="21.8258" y="90.1264" width="60" height="14" transform="rotate(0.387396 21.8258 90.1264)" fill="#2C2C2B"/>
<rect x="386.818" y="92.5943" width="60" height="14" transform="rotate(0.387396 386.818 92.5943)" fill="#2C2C2B"/>
<path d="M55.5969 273.848L63.8309 237.414" stroke="#2C2C2B" stroke-width="10"/>
<path d="M56.6248 267.866L20.4266 223.12" stroke="#2C2C2B" stroke-width="15"/>
<path d="M405.603 272.225L442.549 227.243" stroke="#2C2C2B" stroke-width="15"/>
<path d="M407.11 278.503L399.793 244.185" stroke="#2C2C2B" stroke-width="10"/>
<line x1="26.7784" y1="97.1601" x2="26.6229" y2="120.16" stroke="#2C2C2B" stroke-width="10"/>
<line x1="441.796" y1="95.9661" x2="441.64" y2="118.966" stroke="#2C2C2B" stroke-width="10"/>
<rect x="2.65045" y="115.997" width="44" height="115" rx="20" transform="rotate(0.387396 2.65045 115.997)" fill="#2C2C2B"/>
<rect x="419.641" y="118.817" width="44" height="115" rx="20" transform="rotate(0.387396 419.641 118.817)" fill="#2C2C2B"/>
<defs>
<linearGradient id="paint0_linear_71_49" x1="403.632" y1="246.772" x2="1597.37" y2="176.242" gradientUnits="userSpaceOnUse">
<stop stop-color="#495A13"/>
<stop offset="0.255" stop-color="#778A39"/>
<stop offset="0.521544" stop-color="#2C2C2B"/>
<stop offset="0.76" stop-color="#778A39"/>
<stop offset="1" stop-color="#495A13"/>
</linearGradient>
</defs>
</svg>
