<svg width="32" height="32" viewBox="0 0 32 32" fill="none" xmlns="http://www.w3.org/2000/svg">
<path fill-rule="evenodd" clip-rule="evenodd" d="M20.456 15.389C21.0146 15.5736 21.5636 15.7939 22.1017 16.0497C22.6473 16.309 22.8793 16.9615 22.62 17.5071C22.3607 18.0527 21.7082 18.2846 21.1626 18.0254C19.6317 17.2976 17.9948 16.9092 16.293 16.8693C16.1958 16.8731 16.0982 16.875 16.0001 16.875C15.903 16.875 15.8064 16.8731 15.7102 16.8694C10.1567 17.0037 5.34761 20.9864 4.21255 26.4385C4.14162 26.7791 4.22606 27.1283 4.44421 27.3965C4.57054 27.5519 4.85224 27.8125 5.31917 27.8125H18.7892C19.3933 27.8125 19.883 28.3022 19.883 28.9062C19.883 29.5103 19.3933 30 18.7892 30H5.31917C4.31684 30 3.37932 29.5541 2.74707 28.7767C2.11171 27.9954 1.86523 26.9806 2.07096 25.9927C2.72739 22.8395 4.46631 19.9701 6.96731 17.913C8.33123 16.7911 9.88957 15.9403 11.5503 15.3936C9.7377 14.0358 8.56256 11.8713 8.56256 9.4375C8.56256 5.33648 11.899 2 16.0001 2C20.1013 2 23.4377 5.33648 23.4377 9.4375C23.4377 11.8686 22.2652 14.031 20.456 15.389ZM16.0001 14.6784C16.0892 14.6784 16.1782 14.6792 16.2669 14.6808C19.0384 14.5414 21.2502 12.2429 21.2502 9.4375C21.2502 6.54262 18.8951 4.1875 16.0001 4.1875C13.1052 4.1875 10.7501 6.54262 10.7501 9.4375C10.7501 12.2436 12.963 14.5426 15.7355 14.6809C15.8236 14.6792 15.9119 14.6784 16.0001 14.6784Z" fill="#E1E1E1"/>
<path d="M25.8984 23.7109H28.9062C29.5103 23.7109 30 24.2006 30 24.8047C30 25.4088 29.5103 25.8984 28.9062 25.8984H25.8984V28.9062C25.8984 29.5103 25.4087 30 24.8046 30C24.2005 30 23.7109 29.5103 23.7109 28.9062V25.8984H20.703C20.0989 25.8984 19.6092 25.4088 19.6092 24.8047C19.6092 24.2006 20.0989 23.7109 20.703 23.7109H23.7109V20.7031C23.7109 20.099 24.2005 19.6094 24.8046 19.6094C25.4087 19.6094 25.8984 20.099 25.8984 20.7031V23.7109Z" fill="#E1E1E1"/>
</svg>
