<svg width="32" height="32" viewBox="0 0 32 32" fill="none" xmlns="http://www.w3.org/2000/svg">
<path d="M28.9062 14.9062H17.0938V3.09375C17.0938 2.48967 16.6041 2 16 2C15.3959 2 14.9062 2.48967 14.9062 3.09375V14.9062H3.09375C2.48967 14.9062 2 15.3959 2 16C2 16.6041 2.48967 17.0938 3.09375 17.0938H14.9062V28.9062C14.9062 29.5103 15.3959 30 16 30C16.6041 30 17.0938 29.5103 17.0938 28.9062V17.0938H28.9062C29.5103 17.0938 30 16.6041 30 16C30 15.3959 29.5103 14.9062 28.9062 14.9062Z" fill="#E1E1E1"/>
</svg>
