<svg width="32" height="32" viewBox="0 0 32 32" fill="none" xmlns="http://www.w3.org/2000/svg">
<path d="M27.4438 22.831C27.3333 22.2373 26.7659 21.8461 26.1764 21.9574C25.587 22.0687 25.1986 22.6402 25.309 23.2339C25.391 23.6744 25.1988 23.9883 25.0769 24.1362C24.9553 24.2837 24.6852 24.5312 24.2418 24.5312H7.75813C7.3148 24.5312 7.04463 24.2838 6.92306 24.1362C6.80122 23.9883 6.60896 23.6744 6.69095 23.2339C6.99897 21.5784 7.61701 20.4895 8.2147 19.4365C8.94058 18.1576 9.69116 16.8352 9.69116 14.7968V13.1562C9.69116 9.70722 12.4745 6.8632 15.8973 6.81316H16.1026C19.5137 6.86309 22.2878 9.70711 22.2878 13.1562V14.7969C22.2878 16.5317 22.8512 17.7255 23.3794 18.7083C23.5759 19.074 23.9495 19.2816 24.3353 19.2816C24.5098 19.2816 24.687 19.2391 24.8512 19.1496C25.3787 18.8621 25.5748 18.1983 25.2893 17.6671C24.7638 16.6892 24.4596 15.906 24.4596 14.7969V13.1562C24.4596 10.9053 23.594 8.77923 22.0221 7.16983C20.675 5.79055 18.9453 4.92983 17.0754 4.69227V3.09375C17.0754 2.48967 16.5893 2 15.9895 2C15.3898 2 14.9036 2.48967 14.9036 3.09375V4.69549C10.7523 5.23799 7.51939 8.84584 7.51939 13.1562V14.7969C7.51939 16.2541 6.99419 17.1794 6.32928 18.3508C5.67426 19.5049 4.93177 20.813 4.55626 22.831C4.37703 23.7944 4.63059 24.7793 5.25195 25.5333C5.87271 26.2867 6.78623 26.7188 7.75813 26.7188H12.7527C12.7527 28.528 14.2141 30 16.0105 30C17.8068 30 19.2682 28.528 19.2682 26.7188H24.2418C25.2137 26.7188 26.1273 26.2867 26.748 25.5333C27.3694 24.7794 27.6229 23.7944 27.4438 22.831ZM16.0105 27.8125C15.4117 27.8125 14.9246 27.3218 14.9246 26.7188H17.0964C17.0964 27.3218 16.6093 27.8125 16.0105 27.8125Z" fill="#E1E1E1"/>
</svg>
