<svg width="32" height="32" viewBox="0 0 32 32" fill="none" xmlns="http://www.w3.org/2000/svg">
<path d="M3.68656 16.8217C3.22865 16.3682 3.22865 15.6318 3.68551 15.1792L13.9577 4.98043C14.4148 4.52661 14.4139 3.79168 13.9557 3.33897C13.727 3.11299 13.4275 3 13.1281 3C12.8276 3 12.5273 3.11363 12.2983 3.34094L2.02718 13.5388C0.65743 14.8954 0.65743 17.1045 2.02824 18.4622L12.2983 28.6591C12.7554 29.1129 13.4974 29.1137 13.9557 28.6611C14.4139 28.2084 14.4148 27.4734 13.9577 27.0196L3.68656 16.8217Z" fill="#E1E1E1"/>
<path d="M8.55738 17.1606H29.8281C30.4753 17.1606 31 16.641 31 15.9999C31 15.3588 30.4753 14.8392 29.8281 14.8392H8.55738C7.91009 14.8392 7.38544 15.3588 7.38544 15.9999C7.38544 16.641 7.91009 17.1606 8.55738 17.1606Z" fill="#E1E1E1"/>
</svg>
