<svg width="32" height="32" viewBox="0 0 32 32" fill="none" xmlns="http://www.w3.org/2000/svg">
<path d="M28.3134 15.1783C28.7713 15.6318 28.7713 16.3682 28.3145 16.8208L18.0423 27.0196C17.5852 27.4734 17.5861 28.2083 18.0443 28.661C18.273 28.887 18.5725 29 18.8719 29C19.1724 29 19.4727 28.8864 19.7017 28.6591L29.9728 18.4612C31.3426 17.1046 31.3426 14.8955 29.9718 13.5378L19.7017 3.34094C19.2446 2.88713 18.5026 2.88626 18.0443 3.33891C17.5861 3.79163 17.5852 4.52656 18.0423 4.98037L28.3134 15.1783Z" fill="#E1E1E1"/>
<path d="M23.4426 14.8394H2.17188C1.52465 14.8394 1 15.359 1 16.0001C1 16.6412 1.52465 17.1608 2.17194 17.1608H23.4426C24.0899 17.1608 24.6146 16.6412 24.6146 16.0001C24.6146 15.359 24.0899 14.8394 23.4426 14.8394Z" fill="#E1E1E1"/>
</svg>
