<svg width="32" height="32" viewBox="0 0 32 32" fill="none" xmlns="http://www.w3.org/2000/svg">
<path d="M2 7.11416V24.8858C2 27.7058 4.243 30 7 30H25C27.757 30 30 27.7058 30 24.8858C30 24.1797 29.4404 23.6073 28.75 23.6073C28.0596 23.6073 27.5 24.1797 27.5 24.8858C27.5 26.2958 26.3785 27.4429 25 27.4429H7C5.6215 27.4429 4.5 26.2958 4.5 24.8858V14.4018C4.5 12.9919 5.6215 11.8447 7 11.8447H25C26.3785 11.8447 27.5 12.9919 27.5 14.4018V19.1324C27.5 19.8386 28.0596 20.411 28.75 20.411C29.4404 20.411 30 19.8386 30 19.1324V14.4018C30 11.5819 27.757 9.28767 25 9.28767H7C6.08993 9.28767 5.23587 9.53765 4.5 9.97401V7.11416C4.5 5.70418 5.6215 4.55708 7 4.55708H25C26.3785 4.55708 27.5 5.70418 27.5 7.11416C27.5 7.82029 28.0596 8.39269 28.75 8.39269C29.4404 8.39269 30 7.82029 30 7.11416C30 4.29421 27.757 2 25 2H7C4.243 2 2 4.29421 2 7.11416Z" fill="#E1E1E1"/>
<path d="M23.75 19.6438C23.75 20.35 23.1904 20.9224 22.5 20.9224C21.8096 20.9224 21.25 20.35 21.25 19.6438C21.25 18.9377 21.8096 18.3653 22.5 18.3653C23.1904 18.3653 23.75 18.9377 23.75 19.6438Z" fill="#E1E1E1"/>
</svg>
