<svg width="32" height="32" viewBox="0 0 32 32" fill="none" xmlns="http://www.w3.org/2000/svg">
<path d="M28.9062 17.5706C29.5103 17.5706 30 17.0706 30 16.4536V9.96809C30 7.50438 28.0374 5.5 25.625 5.5H6.375C3.96263 5.5 2 7.50438 2 9.96809V22.0319C2 24.4956 3.96263 26.5 6.375 26.5H25.625C28.0374 26.5 30 24.4956 30 22.0319C30 21.415 29.5103 20.9149 28.9062 20.9149C28.3022 20.9149 27.8125 21.415 27.8125 22.0319C27.8125 23.2638 26.8312 24.266 25.625 24.266H6.375C5.16881 24.266 4.1875 23.2638 4.1875 22.0319V13.6611H27.8125V16.4536C27.8125 17.0706 28.3022 17.5706 28.9062 17.5706ZM4.1875 11.427V9.96809C4.1875 8.73623 5.16881 7.73404 6.375 7.73404H25.625C26.8312 7.73404 27.8125 8.73623 27.8125 9.96809V11.427H4.1875Z" fill="#E1E1E1"/>
</svg>
