<svg width="32" height="32" viewBox="0 0 32 32" fill="none" xmlns="http://www.w3.org/2000/svg">
<path fill-rule="evenodd" clip-rule="evenodd" d="M11.9531 6.04688C11.9531 3.81541 13.7685 2 16 2C18.2315 2 20.0469 3.81541 20.0469 6.04688V25.9531C20.0469 28.1846 18.2315 30 16 30C13.7685 30 11.9531 28.1846 11.9531 25.9531V6.04688ZM16 27.8125C17.0253 27.8125 17.8594 26.9784 17.8594 25.9531V6.04688C17.8594 5.02159 17.0253 4.1875 16 4.1875C14.9747 4.1875 14.1406 5.02159 14.1406 6.04688V25.9531C14.1406 26.9784 14.9747 27.8125 16 27.8125Z" fill="#E1E1E1"/>
<path d="M28.9062 21.53C29.5103 21.53 30 21.0404 30 20.4363V12.7253C30 10.4939 28.1846 8.67847 25.9531 8.67847C23.7217 8.67847 21.9062 10.4939 21.9062 12.7253V25.953C21.9062 28.1845 23.7217 29.9999 25.9531 29.9999C28.1846 29.9999 30 28.1845 30 25.953C30 25.349 29.5103 24.8593 28.9062 24.8593C28.3022 24.8593 27.8125 25.349 27.8125 25.953C27.8125 26.9783 26.9784 27.8124 25.9531 27.8124C24.9278 27.8124 24.0938 26.9783 24.0938 25.953V12.7253C24.0938 11.7001 24.9278 10.866 25.9531 10.866C26.9784 10.866 27.8125 11.7001 27.8125 12.7253V20.4363C27.8125 21.0404 28.3022 21.53 28.9062 21.53Z" fill="#E1E1E1"/>
<path fill-rule="evenodd" clip-rule="evenodd" d="M6.04688 12.0144C3.81541 12.0144 2 13.8298 2 16.0613V25.953C2 28.1845 3.81541 29.9999 6.04688 29.9999C8.27834 29.9999 10.0938 28.1845 10.0938 25.953V16.0613C10.0938 13.8298 8.27834 12.0144 6.04688 12.0144ZM7.90625 25.953C7.90625 26.9783 7.07216 27.8124 6.04688 27.8124C5.02159 27.8124 4.1875 26.9783 4.1875 25.953V16.0613C4.1875 15.036 5.02159 14.2019 6.04688 14.2019C7.07216 14.2019 7.90625 15.036 7.90625 16.0613V25.953Z" fill="#E1E1E1"/>
</svg>
