<svg width="32" height="32" viewBox="0 0 32 32" fill="none" xmlns="http://www.w3.org/2000/svg">
<path d="M25.8646 5.74675C23.2248 3.3306 19.7214 2 16 2C12.2786 2 8.77532 3.3306 6.1355 5.74675C3.46872 8.18751 2.00004 11.4404 2.00004 14.9062C2.00004 17.6092 2.88389 20.1701 4.56324 22.3532L2.07977 28.4963C1.91292 28.909 2.01283 29.3816 2.33248 29.6915C2.54084 29.8935 2.81526 30 3.09406 30C3.24297 30 3.39314 29.9696 3.535 29.9071L10.5709 26.8055C12.2903 27.4739 14.1145 27.8125 16 27.8125C18.3602 27.8125 20.6937 27.2609 22.7484 26.2174C23.287 25.9438 23.5018 25.2855 23.2283 24.7469C22.9547 24.2083 22.2964 23.9935 21.7578 24.267C20.0086 25.1554 18.0176 25.625 16 25.625C14.2471 25.625 12.5592 25.2841 10.9832 24.6117C10.7048 24.4929 10.3897 24.4948 10.1128 24.6169L5.11733 26.8189L6.83266 22.5758C6.9854 22.198 6.91545 21.7665 6.65104 21.4563C5.0394 19.5656 4.18753 17.3006 4.18753 14.9062C4.18753 8.9959 9.48658 4.1875 16 4.1875C22.5135 4.1875 27.8125 8.9959 27.8125 14.9062C27.8125 16.9415 27.181 18.9217 25.9861 20.6328C25.6402 21.128 25.7613 21.8099 26.2566 22.1557C26.7517 22.5016 27.4337 22.3804 27.7795 21.8852C29.2322 19.805 30 17.3917 30 14.9062C30 11.4404 28.5314 8.18751 25.8646 5.74675Z" fill="#E1E1E1"/>
</svg>
