<svg width="32" height="32" viewBox="0 0 32 32" fill="none" xmlns="http://www.w3.org/2000/svg">
<path d="M29.5913 5.24058C29.1204 4.86313 28.432 4.93802 28.0536 5.40765L13.5003 23.4728C13.3028 23.6835 13.0358 23.8056 12.7458 23.8172C12.4472 23.8292 12.1645 23.7229 11.9516 23.521L3.85059 15.7761C3.41446 15.3592 2.72217 15.3739 2.30414 15.8087C1.88616 16.2437 1.90082 16.9342 2.3369 17.3512L10.4411 25.0992C11.0569 25.683 11.8537 26 12.6979 26C12.743 26 12.7884 25.9991 12.8338 25.9972C13.728 25.9614 14.5494 25.5754 15.1464 24.9104C15.1594 24.8959 15.1719 24.8811 15.1842 24.866L29.7588 6.77428C30.1372 6.30459 30.0622 5.61798 29.5913 5.24058Z" fill="#E1E1E1"/>
</svg>
