<svg width="32" height="32" viewBox="0 0 32 32" fill="none" xmlns="http://www.w3.org/2000/svg">
<path d="M17.5469 16.0001L29.6796 3.86721C30.1068 3.44004 30.1068 2.74748 29.6796 2.32037C29.2525 1.89326 28.5599 1.89321 28.1328 2.32037L16 14.4532L3.8672 2.32037C3.44004 1.89321 2.74748 1.89321 2.32037 2.32037C1.89326 2.74754 1.89321 3.4401 2.32037 3.86721L14.4531 16L2.32037 28.1329C1.89321 28.56 1.89321 29.2526 2.32037 29.6797C2.53393 29.8932 2.81387 30 3.09382 30C3.37376 30 3.65365 29.8932 3.86726 29.6797L16 17.5469L28.1327 29.6797C28.3463 29.8932 28.6262 30 28.9062 30C29.1861 30 29.466 29.8932 29.6796 29.6797C30.1068 29.2525 30.1068 28.56 29.6796 28.1329L17.5469 16.0001Z" fill="#E1E1E1"/>
</svg>
