<svg width="32" height="32" viewBox="0 0 32 32" fill="none" xmlns="http://www.w3.org/2000/svg">
<path fill-rule="evenodd" clip-rule="evenodd" d="M28 15.7832C28 16.3875 27.4937 16.8771 26.8681 16.8771C26.243 16.8771 25.7362 16.3875 25.7362 15.7833V6.37561C25.7362 5.16931 24.7205 4.18787 23.4719 4.18787H13.0568C11.8081 4.18787 10.7925 5.16931 10.7925 6.37561V21.2521C10.7925 21.8364 11.0284 22.386 11.4559 22.7992C11.8834 23.2124 12.4519 23.4398 13.0573 23.4398L23.4724 23.4374C24.7205 23.4371 25.7362 22.4557 25.7362 21.2495C25.7362 20.6454 26.243 20.1556 26.8681 20.1556C27.4932 20.1556 28 20.6454 28 21.2495C28 23.4768 26.2688 25.321 24.0378 25.5912V25.6244C24.0378 28.0371 22.0064 30 19.5097 30H8.52865C6.03137 30 4 28.0371 4 25.6244V10.7473C4 8.33447 6.03188 6.37158 8.52865 6.37158C8.53067 3.96069 10.5615 2 13.0568 2H23.4719C25.9686 2 28 3.96289 28 6.37561V15.7832ZM21.774 25.6255L13.0568 25.6276C11.8476 25.6276 10.7106 25.1727 9.8551 24.3463C8.9996 23.5199 8.52865 22.4209 8.52865 21.252V8.55933C7.28001 8.55933 6.26432 9.54077 6.26432 10.7472V25.6243C6.26432 26.8307 7.28001 27.8121 8.52865 27.8121H19.5097C20.7578 27.8121 21.773 26.8313 21.774 25.6255Z" fill="#E1E1E1"/>
<path d="M14.2453 7.9071H22.2768C22.9024 7.9071 23.4092 8.39685 23.4092 9.0011C23.4092 9.60522 22.9024 10.095 22.2768 10.095H14.2453C13.6202 10.095 13.1134 9.60522 13.1134 9.0011C13.1134 8.39685 13.6202 7.9071 14.2453 7.9071Z" fill="#E1E1E1"/>
<path d="M14.2453 12.2827H22.2768C22.9024 12.2827 23.4092 12.7725 23.4092 13.3766C23.4092 13.9808 22.9024 14.4706 22.2768 14.4706H14.2453C13.6202 14.4706 13.1134 13.9808 13.1134 13.3766C13.1134 12.7725 13.6202 12.2827 14.2453 12.2827Z" fill="#E1E1E1"/>
<path d="M17.6981 16.6583H14.2453C13.6202 16.6583 13.1134 17.1481 13.1134 17.7523C13.1134 18.3564 13.6202 18.8462 14.2453 18.8462H17.6981C18.3237 18.8462 18.8305 18.3564 18.8305 17.7523C18.8305 17.1481 18.3237 16.6583 17.6981 16.6583Z" fill="#E1E1E1"/>
</svg>
