<svg width="32" height="32" viewBox="0 0 32 32" fill="none" xmlns="http://www.w3.org/2000/svg">
<path d="M26.3571 6.375V10.1103C26.3582 10.1309 26.3588 10.1517 26.3588 10.1726V17.0147C26.3588 17.6188 25.8876 18.1085 25.3064 18.1085C24.7252 18.1085 24.2541 17.6188 24.2541 17.0147L24.2524 6.375C24.2524 5.16881 23.3082 4.1875 22.1477 4.1875H9.20946C8.04891 4.1875 7.10473 5.16881 7.10473 6.375V25.625C7.10473 26.8312 8.04891 27.8125 9.20946 27.8125H19.3706C19.9518 27.8125 20.4229 28.3022 20.423 28.9062C20.423 29.5103 19.9519 30 19.3707 30H9.20946C6.88836 30 5 28.0374 5 25.625V6.375C5 3.96263 6.88836 2 9.20946 2H22.1476C24.4687 2 26.3571 3.96263 26.3571 6.375Z" fill="#E1E1E1"/>
<path d="M20.5194 8.5625H9.68007C9.09885 8.5625 8.62771 9.05217 8.62771 9.65625C8.62771 10.2603 9.09885 10.75 9.68007 10.75H20.5194C21.1006 10.75 21.5718 10.2603 21.5718 9.65625C21.5718 9.05217 21.1006 8.5625 20.5194 8.5625Z" fill="#E1E1E1"/>
<path d="M20.5194 12.9375H9.68007C9.09885 12.9375 8.62771 13.4272 8.62771 14.0312C8.62771 14.6353 9.09885 15.125 9.68007 15.125H20.5194C21.1006 15.125 21.5718 14.6353 21.5718 14.0312C21.5718 13.4272 21.1006 12.9375 20.5194 12.9375Z" fill="#E1E1E1"/>
<path d="M9.68004 17.3125H16.2631C16.8443 17.3125 17.3155 17.8022 17.3155 18.4062C17.3155 19.0103 16.8444 19.5 16.2632 19.5H9.68004C9.09882 19.5 8.62768 19.0103 8.62768 18.4062C8.62768 17.8022 9.09882 17.3125 9.68004 17.3125Z" fill="#E1E1E1"/>
<path d="M22.6037 23.0001V20.6728C22.6037 20.0688 23.0748 19.5791 23.656 19.579C24.2373 19.579 24.7084 20.0687 24.7084 20.6727V23.0001H26.9476C27.5288 23.0001 27.9999 23.4898 28 24.0938C28 24.6979 27.5289 25.1876 26.9477 25.1876H24.7084V27.5148C24.7084 28.1189 24.2373 28.6085 23.656 28.6085C23.0748 28.6085 22.6037 28.1189 22.6037 27.5148V25.1876H20.3645C19.7833 25.1876 19.3122 24.6979 19.3122 24.0938C19.3122 23.4898 19.7833 23.0001 20.3645 23.0001H22.6037Z" fill="#E1E1E1"/>
</svg>
