<svg width="32" height="32" viewBox="0 0 32 32" fill="none" xmlns="http://www.w3.org/2000/svg">
<path d="M13.661 4.40941C14.7044 2.5302 17.2956 2.5302 18.339 4.40941L25.466 17.2465C25.7674 17.7894 25.5962 18.4883 25.0837 18.8075C24.5712 19.1268 23.9113 18.9455 23.6099 18.4026L16.4829 5.56553C16.2721 5.18576 15.7279 5.18576 15.5171 5.56553L4.22961 25.8964C4.04212 26.2341 4.25614 26.7193 4.71253 26.7193H27.2875C27.7439 26.7193 27.9579 26.2341 27.7704 25.8964L26.9835 24.4791C26.6821 23.9362 26.8533 23.2373 27.3658 22.918C27.8783 22.5988 28.5382 22.7801 28.8396 23.3229L29.6264 24.7402C30.6931 26.6615 29.3394 29 27.2875 29H4.71253C2.66059 29 1.30691 26.6615 2.37358 24.7402L13.661 4.40941Z" fill="#E1E1E1"/>
<path d="M14.8999 13.1C14.8999 12.4925 15.3924 12 15.9999 12C16.6074 12 17.0999 12.4925 17.0999 13.1V18.9C17.0999 19.5075 16.6074 20 15.9999 20C15.3924 20 14.8999 19.5075 14.8999 18.9V13.1Z" fill="#E1E1E1"/>
<path d="M15.9999 22C15.3924 22 14.8999 22.4925 14.8999 23.1C14.8999 23.7075 15.3924 24.2 15.9999 24.2C16.6074 24.2 17.0999 23.7075 17.0999 23.1C17.0999 22.4925 16.6074 22 15.9999 22Z" fill="#E1E1E1"/>
</svg>
