<svg width="32" height="32" viewBox="0 0 32 32" fill="none" xmlns="http://www.w3.org/2000/svg">
<path fill-rule="evenodd" clip-rule="evenodd" d="M7.14062 2H5.82812C3.7173 2 2 3.7173 2 5.82812V26.1719C2 28.2827 3.7173 30 5.82812 30H7.14062C9.25145 30 10.9688 28.2827 10.9688 26.1719V5.82812C10.9688 3.7173 9.25145 2 7.14062 2ZM8.78125 26.1719C8.78125 27.0765 8.04527 27.8125 7.14062 27.8125H5.82812C4.92348 27.8125 4.1875 27.0765 4.1875 26.1719V5.82812C4.1875 4.92348 4.92348 4.1875 5.82812 4.1875H7.14062C8.04527 4.1875 8.78125 4.92348 8.78125 5.82812V26.1719Z" fill="#E1E1E1"/>
<path fill-rule="evenodd" clip-rule="evenodd" d="M26.1719 2H17.0938C14.9829 2 13.2656 3.7173 13.2656 5.82812V7.14062C13.2656 9.25145 14.9829 10.9688 17.0938 10.9688H26.1719C28.2827 10.9688 30 9.25145 30 7.14062V5.82812C30 3.7173 28.2827 2 26.1719 2ZM27.8125 7.14062C27.8125 8.04527 27.0765 8.78125 26.1719 8.78125H17.0938C16.1891 8.78125 15.4531 8.04527 15.4531 7.14062V5.82812C15.4531 4.92348 16.1891 4.1875 17.0938 4.1875H26.1719C27.0765 4.1875 27.8125 4.92348 27.8125 5.82812V7.14062Z" fill="#E1E1E1"/>
<path d="M17.0938 13.3203H26.1719C28.2827 13.3203 30 15.0376 30 17.1484V20.7031C30 21.3072 29.5103 21.7969 28.9062 21.7969C28.3022 21.7969 27.8125 21.3072 27.8125 20.7031V17.1484C27.8125 16.2438 27.0765 15.5078 26.1719 15.5078H17.0938C16.1891 15.5078 15.4531 16.2438 15.4531 17.1484V26.1719C15.4531 27.0765 16.1891 27.8125 17.0938 27.8125H26.1719C27.0765 27.8125 27.8125 27.0765 27.8125 26.1719C27.8125 25.5678 28.3022 25.0781 28.9062 25.0781C29.5103 25.0781 30 25.5678 30 26.1719C30 28.2827 28.2827 30 26.1719 30H17.0938C14.9829 30 13.2656 28.2827 13.2656 26.1719V17.1484C13.2656 15.0376 14.9829 13.3203 17.0938 13.3203Z" fill="#E1E1E1"/>
</svg>
