<svg width="32" height="32" viewBox="0 0 32 32" fill="none" xmlns="http://www.w3.org/2000/svg">
<path fill-rule="evenodd" clip-rule="evenodd" d="M21.2331 6.53906H27.8983C28.5067 6.53906 29 7.02881 29 7.63281C29 8.23682 28.5067 8.72656 27.8983 8.72656H26.7575L25.8034 21.0061C25.7589 21.5796 25.2761 22.0156 24.7061 22.0156H24.6869L24.6527 22.0144L24.6203 22.0125C24.0136 21.9658 23.5596 21.4399 23.6064 20.8376L24.5475 8.72656H7.45252L8.78144 25.8306C8.88866 26.9609 9.83051 27.8125 10.975 27.8125H21.025C22.1734 27.8125 23.1168 26.9705 23.2193 25.8538C23.2744 25.2522 23.8097 24.8091 24.4164 24.864C25.0223 24.9187 25.4687 25.4509 25.4136 26.0525C25.2068 28.303 23.3201 30 21.025 30H10.975C9.87305 30 8.81783 29.5938 8.00386 28.856C7.18988 28.1182 6.6865 27.1118 6.58641 26.0222L6.58518 26.0071L5.24249 8.72656H4.10169C3.4933 8.72656 3 8.23682 3 7.63281C3 7.02881 3.4933 6.53906 4.10169 6.53906H10.7669V5.28125C10.7669 3.47192 12.2496 2 14.072 2H17.928C19.7504 2 21.2331 3.47192 21.2331 5.28125V6.53906ZM12.9703 6.53906H19.0297V5.28125C19.0297 4.67822 18.5354 4.1875 17.928 4.1875H14.072C13.4646 4.1875 12.9703 4.67822 12.9703 5.28125V6.53906Z" fill="#E1E1E1"/>
<path d="M9.94166 12.0557C9.9151 11.4519 10.3865 10.9414 10.9942 10.915C11.6011 10.8879 12.1165 11.3567 12.1431 11.96L12.6939 24.4797C12.7205 25.0835 12.2491 25.594 11.6414 25.6204L11.5925 25.6213C11.006 25.6213 10.5183 25.1626 10.4925 24.5754L9.94166 12.0557Z" fill="#E1E1E1"/>
<path d="M19.8569 11.96L19.3061 24.48C19.2795 25.0835 19.7509 25.594 20.3586 25.6204L20.4075 25.6213C20.68 25.6213 20.9311 25.5222 21.1246 25.3574C21.3474 25.1675 21.4937 24.8899 21.5075 24.5754L22.0583 12.0557C22.0849 11.4521 21.6135 10.9414 21.0058 10.915C20.3989 10.8882 19.8835 11.3567 19.8569 11.96Z" fill="#E1E1E1"/>
<path d="M14.8983 24.5276V12.0078C14.8983 11.4038 15.3916 10.9141 16 10.9141C16.6084 10.9141 17.1017 11.4038 17.1017 12.0078V24.5276C17.1017 25.1316 16.6084 25.6213 16 25.6213C15.3916 25.6213 14.8983 25.1316 14.8983 24.5276Z" fill="#E1E1E1"/>
</svg>
