<svg width="32" height="32" viewBox="0 0 32 32" fill="none" xmlns="http://www.w3.org/2000/svg">
<path d="M29.6796 3.86717L20.2055 13.3414C19.7784 13.7685 19.0859 13.7685 18.6587 13.3414C18.2316 12.9142 18.2316 12.2217 18.6587 11.7946L28.1328 2.32036C28.56 1.89321 29.2525 1.89321 29.6796 2.32036C30.1068 2.74752 30.1068 3.44002 29.6796 3.86717Z" fill="#E1E1E1"/>
<path d="M17.1475 16.0207L25.6114 15.96C26.2155 15.9556 26.7087 16.4419 26.713 17.0459C26.7173 17.65 26.2311 18.1432 25.6271 18.1475L17.1584 18.2081L17.1506 18.2081C16.2741 18.2082 15.4501 17.8668 14.8304 17.2471C14.2107 16.6274 13.8693 15.8033 13.8694 14.9269L13.8527 6.38291C13.8514 5.77881 14.3402 5.2882 14.9442 5.287C15.247 5.28638 15.5214 5.40892 15.7198 5.60734C15.9173 5.80475 16.0396 6.0773 16.0402 6.37858L16.0569 14.9247C16.0569 15.219 16.1706 15.4937 16.3772 15.7003C16.583 15.9061 16.8565 16.0199 17.1475 16.0207Z" fill="#E1E1E1"/>
<path d="M27.8125 25.625C27.8125 25.0209 28.3022 24.5312 28.9062 24.5312C29.5103 24.5312 30 25.0209 30 25.625C30 28.0374 28.0374 30 25.625 30H6.375C3.96263 30 2 28.0374 2 25.625C2 25.0209 2.48967 24.5312 3.09375 24.5312C3.69783 24.5312 4.1875 25.0209 4.1875 25.625C4.1875 26.8312 5.16881 27.8125 6.375 27.8125H25.625C26.8312 27.8125 27.8125 26.8312 27.8125 25.625Z" fill="#E1E1E1"/>
</svg>
