<svg width="18" height="17" viewBox="0 0 18 17" fill="none" xmlns="http://www.w3.org/2000/svg">
<path d="M0.5 12V7C0.5 4.51472 2.51472 2.5 5 2.5H7.5C8.90741 2.5 10.2282 3.17969 11.0462 4.32495L13.6618 7.98675C14.2069 8.74996 14.5 9.66442 14.5 10.6023V12C14.5 14.4853 12.4853 16.5 10 16.5H5C2.51472 16.5 0.5 14.4853 0.5 12Z" fill="white" stroke="#495A13"/>
<path d="M4.64645 15.3536C4.84171 15.5488 5.15829 15.5488 5.35355 15.3536L8.53553 12.1716C8.7308 11.9763 8.7308 11.6597 8.53553 11.4645C8.34027 11.2692 8.02369 11.2692 7.82843 11.4645L5 14.2929L2.17157 11.4645C1.97631 11.2692 1.65973 11.2692 1.46447 11.4645C1.2692 11.6597 1.2692 11.9763 1.46447 12.1716L4.64645 15.3536ZM4.5 8V15H5.5V8H4.5Z" fill="#495A13"/>
<path d="M8.31117 8.76107L9.36383 4.15672C9.46093 3.732 10.017 3.62601 10.2635 3.98523L13.8857 9.26318C14.1322 9.6224 13.8334 10.1031 13.4022 10.041L8.72729 9.3674C8.43805 9.32572 8.24605 9.04595 8.31117 8.76107Z" fill="white" stroke="#495A13"/>
</svg>
