<svg width="32" height="32" viewBox="0 0 32 32" fill="none" xmlns="http://www.w3.org/2000/svg">
<path d="M28.3592 3.64095C27.301 2.58275 25.8942 2 24.3978 2C22.9013 2 21.4944 2.58275 20.4363 3.6409L4.77953 19.2977C4.64632 19.4309 4.54979 19.5963 4.49926 19.7778L2.04007 28.613C1.93403 28.994 2.04193 29.4027 2.32242 29.6817C2.53024 29.8884 2.80871 30 3.09385 30C3.19349 30 3.294 29.9863 3.3926 29.9583L12.2278 27.4487C12.6005 27.3428 12.8895 27.0475 12.9873 26.6725C13.085 26.2975 12.9771 25.8988 12.7035 25.6243L7.13345 20.0374L20.1116 7.0592L24.9382 11.8858L15.0029 21.794C14.5752 22.2206 14.5743 22.9131 15.0009 23.3408C15.4274 23.7686 16.12 23.7695 16.5476 23.3429L28.359 11.5637C29.4172 10.5055 30 9.09871 30 7.6023C30 6.10588 29.4172 4.69905 28.3592 3.64095ZM9.8419 25.8524L4.67021 27.3214L6.11861 22.1178L9.8419 25.8524ZM26.8134 10.0158L26.4871 10.3412L21.6585 5.51241L21.9832 5.18768C22.6281 4.5427 23.4856 4.1875 24.3978 4.1875C25.3099 4.1875 26.1673 4.5427 26.8123 5.18773C27.4573 5.83266 27.8125 6.69016 27.8125 7.6023C27.8125 8.51443 27.4573 9.37193 26.8134 10.0158Z" fill="#E1E1E1"/>
</svg>
