<svg width="32" height="32" viewBox="0 0 32 32" fill="none" xmlns="http://www.w3.org/2000/svg">
<path d="M2.32577 7.10352L6.48515 2.97007C7.78697 1.67754 9.90375 1.6767 11.2061 2.9672L15.4184 7.09893C15.6388 7.31518 15.7493 7.60029 15.7493 7.88551C15.7493 8.16613 15.6423 8.44687 15.428 8.66226C14.9959 9.09664 14.291 9.10092 13.8536 8.67186L9.63423 4.53321C9.20018 4.10216 8.49391 4.10213 8.0598 4.53314L3.90081 8.66626C3.4662 9.09815 2.76132 9.09845 2.32638 8.6669C1.89145 8.23535 1.89117 7.53541 2.32577 7.10352Z" fill="#E1E1E1"/>
<path d="M7.73267 20.4319L7.73336 8.65868C7.7334 8.04813 8.23185 7.55325 8.84672 7.55328C9.46159 7.55332 9.95998 8.04826 9.95994 8.65881L9.95925 20.432C9.95921 21.0426 9.46076 21.5375 8.84589 21.5374C8.23102 21.5374 7.73263 21.0425 7.73267 20.4319Z" fill="#E1E1E1"/>
<path d="M23.8921 27.4595L23.8845 27.4669C23.4504 27.8979 22.7441 27.8979 22.3078 27.4646L18.1489 23.3584C17.7129 22.9279 17.008 22.9299 16.5745 23.3629C16.141 23.7958 16.1429 24.4957 16.5789 24.9262L20.7355 29.0301C22.0363 30.3218 24.1521 30.3233 25.4548 29.0344L29.6663 24.932C29.8886 24.7156 30 24.4294 30 24.1429C30 23.8636 29.894 23.584 29.6815 23.3689C29.2509 22.933 28.546 22.9263 28.1071 23.3539L23.8921 27.4595Z" fill="#E1E1E1"/>
<path d="M21.9839 23.3683L21.9846 11.5951C21.9847 10.9845 22.4831 10.4896 23.098 10.4897C23.7128 10.4897 24.2112 10.9847 24.2112 11.5952L24.2105 23.3684C24.2105 23.979 23.712 24.4739 23.0971 24.4738C22.4823 24.4738 21.9839 23.9789 21.9839 23.3683Z" fill="#E1E1E1"/>
</svg>
