<svg width="32" height="32" viewBox="0 0 32 32" fill="none" xmlns="http://www.w3.org/2000/svg">
<path d="M24.9325 3.00006C26.2261 3.00006 27.4418 3.54735 28.4521 4.58551C29.4761 5.63784 30.0255 6.96056 29.9991 8.31013C29.9739 9.59951 29.4315 10.8525 28.4718 11.838C28.0471 12.2741 27.3549 12.278 26.9255 11.8462C26.4964 11.4145 26.4927 10.7109 26.9175 10.2747C27.9121 9.25319 28.2916 7.58116 26.8973 6.14833C25.721 4.9396 24.1915 4.91553 22.9978 6.08592L10.5064 18.9927C10.3123 19.1922 9.92818 19.7142 10.5038 20.3057C10.7021 20.5094 10.9122 20.6126 11.1282 20.6126C11.3479 20.6126 11.5745 20.5038 11.7668 20.3062L20.4076 11.3346C20.83 10.8961 21.5224 10.8885 21.9539 11.3178C22.3855 11.7472 22.3929 12.4507 21.9704 12.8893L13.3258 21.8647C12.7159 22.4917 11.937 22.835 11.1286 22.8351C10.33 22.8351 9.5557 22.4918 8.94905 21.8684C7.69807 20.5829 7.6984 18.717 8.94982 17.4319L21.4571 4.50853L21.4662 4.49958C22.4297 3.54913 23.6393 3.01668 24.8721 3.00045C24.8922 3.00017 24.9124 3.00006 24.9325 3.00006Z" fill="#E1E1E1"/>
<path d="M23.4719 13.8948C23.892 13.4539 24.5843 13.4426 25.018 13.8695C25.4519 14.2963 25.463 14.9998 25.043 15.4407L14.2388 26.7811C12.8473 28.2117 11.0574 28.9998 9.19892 29.0001C7.3606 29.0001 5.57242 28.2038 4.16536 26.7579C2.70258 25.2548 1.95451 23.4512 2.00214 21.5424C2.04682 19.7524 2.81562 18.0022 4.16717 16.6142L4.17127 16.61L14.949 5.65901C15.3761 5.22511 16.0684 5.22516 16.4953 5.65918C16.9222 6.0932 16.9222 6.79677 16.4951 7.23068L5.71948 18.1795C4.02033 19.9261 3.36195 22.772 5.72013 25.1952C6.72759 26.2304 7.93028 26.7776 9.19794 26.7776C10.466 26.7775 11.7028 26.2252 12.6798 25.2226L23.4719 13.8948Z" fill="#E1E1E1"/>
</svg>
