<svg width="32" height="32" viewBox="0 0 32 32" fill="none" xmlns="http://www.w3.org/2000/svg">
<path d="M28.9062 2H3.09375C2.48967 2 2 2.48987 2 3.09419C2 7.33363 3.25387 11.0452 5.94598 14.7748C7.62554 17.1016 10.6386 18.8148 12.1719 19.5819V26.225C12.1719 26.6426 12.4095 27.0239 12.7844 27.2076L18.2531 29.8884C18.4054 29.963 18.57 30 18.7343 30C18.9358 30 19.1367 29.9444 19.3131 29.8343C19.6334 29.6344 19.8281 29.2835 19.8281 28.9058V24.3964C19.8281 23.7921 19.3385 23.3022 18.7344 23.3022C18.1303 23.3022 17.6406 23.7921 17.6406 24.3964V27.1512L14.3594 25.5427V18.894C14.3594 18.4665 14.1105 18.0782 13.7223 17.8997C11.6803 16.9611 9.03106 15.3108 7.71944 13.4936C5.54643 10.4833 4.42036 7.50033 4.22015 4.18838H27.7799C27.5796 7.50028 26.4536 10.4833 24.2806 13.4936C22.8943 15.4141 20.2859 17.0979 18.3157 17.9146C17.7577 18.1459 17.4927 18.786 17.724 19.3443C17.9552 19.9025 18.595 20.1676 19.1531 19.9362C21.2433 19.0698 24.3049 17.1981 26.054 14.7748C28.7461 11.0452 30 7.33363 30 3.09419C30 2.48987 29.5103 2 28.9062 2Z" fill="#E1E1E1"/>
</svg>
