<svg width="32" height="32" viewBox="0 0 32 32" fill="none" xmlns="http://www.w3.org/2000/svg">
<path fill-rule="evenodd" clip-rule="evenodd" d="M29.6794 28.1327L9.67114 8.12415L9.64136 8.09485L3.86792 2.32092C3.44067 1.89368 2.74829 1.89368 2.32104 2.32092C1.8938 2.74817 1.8938 3.44055 2.32104 3.86755L7.20923 8.75598C4.71753 10.7179 3.1731 12.9086 2.71997 13.5975C1.76001 15.057 1.76001 16.9432 2.71997 18.4027C3.30542 19.2933 4.95728 21.5797 7.63647 23.5709C10.3489 25.587 13.1707 26.6093 16.0242 26.6093C18.3762 26.6093 20.7122 25.9095 22.9807 24.5275L28.1326 29.6793C28.3464 29.8929 28.6262 29.9999 28.906 29.9999C29.1858 29.9999 29.4661 29.8929 29.6794 29.6793C30.1067 29.2523 30.1067 28.5597 29.6794 28.1327ZM12.4709 14.0177L13.9763 15.5226C13.8181 16.2142 14.0081 16.9694 14.5471 17.5082C15.0857 18.047 15.8406 18.2372 16.5325 18.079L17.9832 19.5299C17.3845 19.8673 16.7063 20.047 16.0002 20.047C13.7688 20.047 11.9534 18.2316 11.9534 16.0001C11.9534 15.2968 12.1335 14.6173 12.4709 14.0177ZM16.0242 24.4218C10.7136 24.4218 6.31128 19.8827 4.54712 17.2006C4.06763 16.4713 4.06763 15.5289 4.54712 14.7997C4.96411 14.1659 6.41675 12.1071 8.76831 10.3148L10.8865 12.433C10.1589 13.473 9.76587 14.7108 9.76587 16.0001C9.76587 19.4376 12.5627 22.2343 16.0002 22.2343C17.2947 22.2343 18.5291 21.8424 19.5681 21.1146L21.3816 22.9283C19.6091 23.92 17.8118 24.4218 16.0242 24.4218Z" fill="#E1E1E1"/>
<path d="M29.3083 13.64L29.2913 13.6127C28.7102 12.7211 27.072 10.4318 24.4045 8.43762C21.7009 6.41589 18.8816 5.39099 16.0242 5.39099C14.9368 5.39099 13.8342 5.5448 12.7473 5.84778C12.1658 6.01013 11.8254 6.6134 11.988 7.19519C12.1501 7.77698 12.7532 8.11707 13.3352 7.95496C13.7429 7.84119 14.1521 7.75305 14.5608 7.6908C14.845 7.64734 15.1287 7.61658 15.4119 7.59827C15.6165 7.58508 15.821 7.57849 16.0242 7.57849C21.3118 7.57849 25.6731 12.0836 27.4358 14.7723L27.4534 14.7997C27.5588 14.9603 27.6418 15.1324 27.7014 15.3124C27.7332 15.4083 27.7585 15.5062 27.7766 15.6058C27.8005 15.7352 27.8123 15.8671 27.8123 16.0001C27.8123 16.2645 27.7649 16.524 27.6736 16.7679C27.6169 16.9191 27.5432 17.0641 27.4534 17.2006C26.927 18.0004 26.2219 18.8778 25.468 19.671C25.052 20.1088 25.0691 20.8011 25.5071 21.2172C25.595 21.3004 25.6926 21.3663 25.7961 21.4149C25.9431 21.484 26.1018 21.5182 26.2605 21.5182C26.5496 21.5182 26.8386 21.4042 27.0535 21.1781C28.1311 20.0443 28.8596 19.0428 29.281 18.4025C29.7512 17.6874 29.9998 16.8566 29.9998 15.9999C29.9998 15.1603 29.761 14.3456 29.3083 13.64Z" fill="#E1E1E1"/>
<path d="M17.3967 9.92322C19.7332 10.4584 21.5754 12.317 22.0896 14.6581C22.219 15.2482 21.8455 15.8314 21.2556 15.9608C21.2156 15.9696 21.176 15.976 21.1365 15.9803C21.0974 15.9845 21.0588 15.9865 21.0203 15.9865C20.5173 15.9865 20.0652 15.6383 19.9529 15.1273C19.6194 13.6083 18.4241 12.4025 16.9084 12.0553C16.3196 11.9205 15.9514 11.3339 16.0862 10.745C16.2209 10.1564 16.8079 9.78845 17.3967 9.92322Z" fill="#E1E1E1"/>
</svg>
