<svg width="32" height="32" viewBox="0 0 32 32" fill="none" xmlns="http://www.w3.org/2000/svg">
<path d="M7.14062 2H5.82812C3.7173 2 2 3.7173 2 5.82812V26.1719C2 28.2827 3.7173 30 5.82812 30H7.14062C9.25145 30 10.9688 28.2827 10.9688 26.1719V5.82812C10.9688 3.7173 9.25145 2 7.14062 2ZM8.78125 26.1719C8.78125 27.0765 8.04527 27.8125 7.14062 27.8125H5.82812C4.92348 27.8125 4.1875 27.0765 4.1875 26.1719V5.82812C4.1875 4.92348 4.92348 4.1875 5.82812 4.1875H7.14062C8.04527 4.1875 8.78125 4.92348 8.78125 5.82812V26.1719Z" fill="#E1E1E1"/>
<path d="M17.575 2H25.625C28.0374 2 30 3.96263 30 6.375V8.5625C30 9.16658 29.5103 9.65625 28.9062 9.65625C28.3022 9.65625 27.8125 9.16658 27.8125 8.5625V6.375C27.8125 5.16881 26.8312 4.1875 25.625 4.1875H17.575C16.3688 4.1875 15.3875 5.16881 15.3875 6.375V25.625C15.3875 26.8312 16.3688 27.8125 17.575 27.8125H25.625C26.8312 27.8125 27.8125 26.8312 27.8125 25.625V23.4375C27.8125 22.8334 28.3022 22.3438 28.9062 22.3438C29.5103 22.3438 30 22.8334 30 23.4375V25.625C30 28.0374 28.0374 30 25.625 30H17.575C15.1626 30 13.2 28.0374 13.2 25.625V6.375C13.2 3.96263 15.1626 2 17.575 2Z" fill="#E1E1E1"/>
<path d="M22.6566 11.4344L19.2968 14.7993C18.6345 15.4613 18.6345 16.5386 19.2961 17.2001L22.6566 20.5655C23.1015 21.0109 23.8231 21.0116 24.2687 20.5669C24.7143 20.1223 24.7149 19.4008 24.2701 18.9554L22.4569 17.1396H28.8601C29.4896 17.1396 30 16.6294 30 16C30 15.3706 29.4897 14.8605 28.8601 14.8605H22.4569L24.2701 13.0446C24.4922 12.8222 24.6033 12.5309 24.6033 12.2395C24.6033 11.9476 24.4916 11.6556 24.2686 11.433C23.8231 10.9884 23.1014 10.9891 22.6566 11.4344Z" fill="#E1E1E1"/>
</svg>
