<svg width="32" height="32" viewBox="0 0 32 32" fill="none" xmlns="http://www.w3.org/2000/svg">
<path d="M16 2C19.7395 2 23.2552 3.45627 25.8995 6.10047C28.5437 8.74477 30 12.2605 30 16C30 18.7634 29.1797 21.4509 27.628 23.772C27.2923 24.2741 26.613 24.4091 26.1108 24.0734C25.6087 23.7376 25.4737 23.0584 25.8095 22.5562C27.1199 20.5962 27.8125 18.3291 27.8125 16C27.8125 9.48655 22.5134 4.1875 16 4.1875C9.48655 4.1875 4.1875 9.48655 4.1875 16C4.1875 22.5134 9.48655 27.8125 16 27.8125C18.1604 27.8125 20.2734 27.2243 22.1107 26.1114C22.6273 25.7984 23.2999 25.9635 23.6128 26.4803C23.9258 26.9969 23.7606 27.6694 23.244 27.9824C21.065 29.3024 18.5601 30 16 30C12.2605 30 8.74477 28.5437 6.10047 25.8995C3.45627 23.2552 2 19.7395 2 16C2 12.2605 3.45627 8.74477 6.10047 6.10047C8.74477 3.45627 12.2605 2 16 2Z" fill="#E1E1E1"/>
<path d="M14.9062 7.25C14.9062 6.64592 15.3959 6.15625 16 6.15625C16.6041 6.15625 17.0938 6.64592 17.0938 7.25V16C17.0938 16.2901 16.9785 16.5683 16.7734 16.7734L12.4424 21.1044C12.2288 21.318 11.9489 21.4248 11.669 21.4248C11.389 21.4248 11.1091 21.318 10.8956 21.1044C10.4684 20.6773 10.4684 19.9847 10.8956 19.5576L14.9062 15.547V7.25Z" fill="#E1E1E1"/>
</svg>
