<svg width="32" height="32" viewBox="0 0 32 32" fill="none" xmlns="http://www.w3.org/2000/svg">
<path d="M29.6821 14.9229L18.2858 3.38849C18.2712 3.37364 18.2561 3.35924 18.2406 3.34527C16.9962 2.22181 15.1158 2.2178 13.8666 3.33598C13.8511 3.34989 13.836 3.36424 13.8213 3.37898L2.32112 14.9196C1.89357 15.3487 1.89286 16.045 2.31959 16.4749C2.74637 16.9048 3.43888 16.9055 3.86637 16.4765L4.73437 15.6054V25.101C4.73437 27.5266 6.69699 29.5 9.10936 29.5H13.0469C13.6509 29.5 14.1406 29.0076 14.1406 28.4002V19.4372H17.9687V28.4002C17.9687 29.0076 18.4584 29.5 19.0625 29.5H22.8906C25.303 29.5 27.2656 27.5266 27.2656 25.101C27.2656 24.4936 26.7759 24.0012 26.1719 24.0012C25.5678 24.0012 25.0781 24.4936 25.0781 25.101C25.0781 26.3138 24.0968 27.3005 22.8906 27.3005H20.1562V18.3374C20.1562 17.73 19.6666 17.2377 19.0625 17.2377H13.0469C12.4428 17.2377 11.9531 17.73 11.9531 18.3374V27.3005H9.10936C7.90318 27.3005 6.92187 26.3138 6.92187 25.101V13.4435C6.92187 13.4325 6.9217 13.4216 6.92137 13.4107L15.3408 4.9617C15.7506 4.61181 16.3516 4.61313 16.7598 4.96472L25.0781 13.3839V19.6022C25.0781 20.2096 25.5678 20.7019 26.1719 20.7019C26.7759 20.7019 27.2656 20.2096 27.2656 19.6022V15.5979L28.1303 16.4732C28.3441 16.6895 28.6251 16.7978 28.9062 16.7978C29.185 16.7978 29.4638 16.6913 29.6771 16.4782C30.1056 16.0501 30.1079 15.3538 29.6821 14.9229Z" fill="#E1E1E1"/>
</svg>
