<svg width="32" height="32" viewBox="0 0 32 32" fill="none" xmlns="http://www.w3.org/2000/svg">
<path d="M21.9062 11.4083C22.8727 11.4083 23.6562 10.6246 23.6562 9.65781C23.6562 8.69106 22.8727 7.90736 21.9062 7.90736C20.9397 7.90736 20.1562 8.69106 20.1562 9.65781C20.1562 10.6246 20.9397 11.4083 21.9062 11.4083Z" fill="#E1E1E1"/>
<path d="M29.6979 11.0733C29.1138 9.58579 28.0428 7.43946 26.2572 5.66188C24.478 3.89043 22.355 2.84979 20.8873 2.28866C19.276 1.67267 17.445 2.06094 16.2227 3.27777L11.9277 7.55379C10.6545 8.82128 10.2876 10.7716 11.0145 12.4069C11.24 12.9141 11.4851 13.4102 11.7471 13.8895L2.32036 23.3186C2.11523 23.5238 2 23.802 2 24.0922V28.906C2 29.5102 2.48967 30 3.09375 30H7.90623C8.5103 30 8.99997 29.5102 8.99997 28.906V26.9367L10.9687 26.9367C11.5728 26.9367 12.0625 26.4469 12.0625 25.8426V23.8734H14.0312C14.6353 23.8734 15.1249 23.3836 15.1249 22.7794C15.1249 22.1752 14.6353 21.6854 14.0312 21.6854H10.9687C10.3646 21.6854 9.87497 22.1752 9.87497 22.7794V24.7486L7.90623 24.7487C7.30215 24.7487 6.81248 25.2385 6.81248 25.8427V27.8119H4.18749V24.5454L13.8866 14.8439C14.2429 14.4874 14.3097 13.9337 14.0483 13.5027C13.6693 12.8778 13.3211 12.21 13.0135 11.5179C12.6526 10.7061 12.8364 9.73627 13.471 9.10452L17.766 4.82856C18.3792 4.21815 19.2978 4.02346 20.1065 4.33253C21.3764 4.81806 23.2067 5.71177 24.7142 7.21267C26.2309 8.72265 27.1543 10.5805 27.6618 11.8731C27.9785 12.6798 27.7861 13.5963 27.1716 14.2081L22.8247 18.5358C22.1917 19.1659 21.2469 19.3501 20.4176 19.0051C19.7336 18.7206 19.0712 18.3825 18.4488 18.0004C17.9341 17.6843 17.2605 17.8456 16.9446 18.3606C16.6286 18.8755 16.7897 19.5492 17.3046 19.8653C18.0238 20.3068 18.7886 20.6971 19.5775 21.0253C21.2259 21.7112 23.1062 21.3426 24.3678 20.0866L28.7147 15.759C29.9476 14.5316 30.3335 12.6923 29.6979 11.0733Z" fill="#E1E1E1"/>
</svg>
