<svg width="32" height="32" viewBox="0 0 32 32" fill="none" xmlns="http://www.w3.org/2000/svg">
<path d="M24.1398 23.1189C23.4827 23.1189 22.9179 22.591 22.9179 21.9006V18.0843C22.7522 18.4842 22.5444 18.8615 22.2946 19.2148C21.9835 19.6543 21.6158 20.0531 21.1954 20.411C20.8272 20.7244 20.4257 21.0074 19.9935 21.2603C19.4606 21.5722 18.7852 21.4143 18.4395 20.9189L18.397 20.8581C17.9972 20.2851 18.1869 19.4922 18.8038 19.1621C19.0418 19.0348 19.2685 18.8903 19.4833 18.7288C19.7544 18.525 19.992 18.2963 20.1983 18.0424C20.3641 17.8384 20.5062 17.6173 20.625 17.3775H19.4263C18.7959 17.3775 18.2542 16.8711 18.2542 16.209C18.2542 15.547 18.7956 15.0403 19.4263 15.0403H22.17C22.4663 15.0403 22.7389 15.151 22.9466 15.3339C23.0693 14.7779 23.5698 14.3807 24.1398 14.3807H24.196C24.8531 14.3807 25.4179 14.9086 25.4179 15.5991V17.1611C26.0701 17.1672 26.6284 17.693 26.6284 18.3794C26.6284 19.0655 26.0706 19.5917 25.4179 19.5978V21.9006C25.4179 22.591 24.8531 23.1189 24.196 23.1189H24.1398Z" fill="#E1E1E1"/>
<path fill-rule="evenodd" clip-rule="evenodd" d="M11.7716 13.8714C11.4125 13.8714 11.0816 13.6505 10.9529 13.3031L10.484 12.0372H8.76368L8.28066 13.3096C8.15015 13.6534 7.8212 13.8714 7.46438 13.8714H7.23621C6.64332 13.8714 6.19571 13.2781 6.42116 12.6914L8.6454 6.90287C8.77679 6.56093 9.10479 6.3443 9.46046 6.3443H9.762C10.1172 6.3443 10.4447 6.56067 10.5765 6.90141L12.8128 12.6899C13.0396 13.277 12.5917 13.8714 11.9983 13.8714H11.7716ZM9.6239 9.70659L9.4609 10.1546H9.78582L9.6239 9.70659Z" fill="#E1E1E1"/>
<path fill-rule="evenodd" clip-rule="evenodd" d="M24.7327 29.9936C25.1548 29.9467 25.5067 29.6495 25.6234 29.2413L26.5796 25.8969H27.7144C29.5112 25.8969 31 24.4618 31 22.6522V14.9259C31 13.1163 29.5112 11.6812 27.7144 11.6812H18.2343V6.24472C18.2343 4.43516 16.7456 3 14.9486 3H4.28564C2.48878 3 1 4.43514 1 6.24472V13.9711C1 15.7807 2.48876 17.2158 4.28564 17.2158H5.42031L6.37651 20.5602C6.49322 20.9684 6.84514 21.2656 7.26724 21.3124C7.68934 21.3593 8.09791 21.1465 8.30135 20.7738L10.2437 17.2158H13.7657V22.6522C13.7657 24.4618 15.2544 25.8969 17.0513 25.8969H21.7562L23.6986 29.455C23.902 29.8276 24.3106 30.0404 24.7327 29.9936ZM27.7144 13.7734H17.1923L17.1878 13.7734H17.0513C17.009 13.7734 16.9674 13.7755 16.9264 13.7796C16.6713 13.8049 16.4439 13.9068 16.2651 14.0591C16.0137 14.2732 15.8587 14.5867 15.8587 14.9259V22.6522C15.8587 23.2711 16.3749 23.8047 17.0513 23.8047H22.3773C22.7602 23.8047 23.1125 24.0137 23.296 24.3497L24.3127 26.2121L24.7841 24.5633C24.9125 24.1143 25.3231 23.8047 25.7903 23.8047H27.7144C28.3908 23.8047 28.907 23.2711 28.907 22.6522V14.9259C28.907 14.307 28.3908 13.7734 27.7144 13.7734ZM13.7656 14.9259C13.7656 13.9928 14.1615 13.1593 14.7913 12.5708C15.1688 12.2179 15.6304 11.9531 16.1413 11.8077V6.24472C16.1413 5.62579 15.6251 5.09225 14.9486 5.09225H4.28564C3.60924 5.09225 3.09302 5.62581 3.09302 6.24472V13.9711C3.09302 14.59 3.60926 15.1236 4.28564 15.1236H6.20962C6.67684 15.1236 7.08745 15.4332 7.21584 15.8822L7.68726 17.531L8.70399 15.6686C8.8874 15.3326 9.23973 15.1236 9.62261 15.1236H13.7656V14.9259Z" fill="#E1E1E1"/>
</svg>
