<svg width="32" height="32" viewBox="0 0 32 32" fill="none" xmlns="http://www.w3.org/2000/svg">
<path d="M26.9999 20.1562C26.9999 20.7603 26.5146 21.25 25.9159 21.25C25.3172 21.25 24.8319 20.7603 24.8319 20.1562V6.375C24.8319 5.16881 23.8593 4.1875 22.6638 4.1875H9.33616C8.14068 4.1875 7.16808 5.16881 7.16808 6.375V25.625C7.16808 26.8312 8.14068 27.8125 9.33616 27.8125H22.6638C23.8593 27.8125 24.8319 26.8312 24.8319 25.625C24.8319 25.0209 25.3172 24.5312 25.916 24.5312C26.5147 24.5312 27 25.0209 27 25.625C26.9999 28.0374 25.0548 30 22.6638 30H9.33616C6.9452 30 5 28.0374 5 25.625V6.375C5 3.96263 6.9452 2 9.33616 2H22.6638C25.0547 2 26.9999 3.96263 26.9999 6.375V20.1562Z" fill="#E1E1E1"/>
<path d="M10.4134 8.5625H21.579C22.1777 8.5625 22.6631 9.05217 22.6631 9.65625C22.6631 10.2603 22.1778 10.75 21.579 10.75H10.4134C9.81471 10.75 9.32939 10.2603 9.32939 9.65625C9.32939 9.05217 9.81471 8.5625 10.4134 8.5625Z" fill="#E1E1E1"/>
<path d="M21.579 12.9375H10.4134C9.81471 12.9375 9.32939 13.4272 9.32939 14.0312C9.32939 14.6353 9.81471 15.125 10.4134 15.125H21.579C22.1778 15.125 22.6631 14.6353 22.6631 14.0312C22.6631 13.4272 22.1777 12.9375 21.579 12.9375Z" fill="#E1E1E1"/>
<path d="M10.4134 17.3125H17.1946C17.7934 17.3125 18.2787 17.8022 18.2787 18.4062C18.2787 19.0103 17.7935 19.5 17.1947 19.5H10.4134C9.81471 19.5 9.32939 19.0103 9.32939 18.4062C9.32939 17.8022 9.81471 17.3125 10.4134 17.3125Z" fill="#E1E1E1"/>
</svg>
