<svg width="32" height="32" viewBox="0 0 32 32" fill="none" xmlns="http://www.w3.org/2000/svg">
<path d="M17.4272 2H25.5728C28.0142 2 30 3.96265 30 6.375V25.625C30 28.0374 28.0142 30 25.5728 30H17.4272C14.9858 30 13 28.0374 13 25.625V23.4375C13 22.8334 13.4956 22.3438 14.1069 22.3438C14.7183 22.3438 15.2134 22.8334 15.2134 23.4375V25.625C15.2134 26.8312 16.2065 27.8125 17.4272 27.8125H25.5728C26.7935 27.8125 27.7866 26.8312 27.7866 25.625V6.375C27.7866 5.16882 26.7935 4.1875 25.5728 4.1875H17.4272C16.2065 4.1875 15.2134 5.16882 15.2134 6.375V8.5625C15.2134 9.16663 14.7183 9.65625 14.1069 9.65625C13.4956 9.65625 13 9.16663 13 8.5625V6.375C13 3.96265 14.9858 2 17.4272 2Z" fill="#E1E1E1"/>
<path d="M23.3706 13.6794L19.2808 9.59338C18.8535 9.1665 18.1611 9.16675 17.7339 9.59412C17.3071 10.0215 17.3076 10.714 17.7349 11.1409L21.8242 15.2266C22.2505 15.653 22.2505 16.3469 21.8242 16.7733L21.8193 16.7782L17.7295 20.9188C17.3052 21.3486 17.3096 22.0411 17.7393 22.4657C17.855 22.5801 17.9897 22.6633 18.1333 22.7156C18.2539 22.7594 18.3809 22.7812 18.5078 22.7812C18.6304 22.7812 18.7529 22.7607 18.8701 22.7197C19.0225 22.6665 19.165 22.5785 19.2861 22.4561L23.3735 18.3175C24.6504 17.038 24.6494 14.9583 23.3706 13.6794Z" fill="#E1E1E1"/>
<path d="M3.09375 14.9062H17.7422C18.3462 14.9062 18.8359 15.3959 18.8359 16C18.8359 16.6041 18.3462 17.0938 17.7422 17.0938H3.09375C2.48975 17.0938 2 16.6041 2 16C2 15.3959 2.48975 14.9062 3.09375 14.9062Z" fill="#E1E1E1"/>
</svg>
