<svg width="32" height="32" viewBox="0 0 32 32" fill="none" xmlns="http://www.w3.org/2000/svg">
<path d="M14.5728 2H6.42725C3.98584 2 2 3.96265 2 6.375V25.625C2 28.0374 3.98584 30 6.42725 30H14.5728C17.0142 30 19 28.0374 19 25.625V23.4375C19 22.8334 18.5044 22.3438 17.8931 22.3438C17.2817 22.3438 16.7866 22.8334 16.7866 23.4375V25.625C16.7866 26.8312 15.7935 27.8125 14.5728 27.8125H6.42725C5.20654 27.8125 4.21338 26.8312 4.21338 25.625V6.375C4.21338 5.16882 5.20654 4.1875 6.42725 4.1875H14.5728C15.7935 4.1875 16.7866 5.16882 16.7866 6.375V8.5625C16.7866 9.16663 17.2817 9.65625 17.8931 9.65625C18.5044 9.65625 19 9.16663 19 8.5625V6.375C19 3.96265 17.0142 2 14.5728 2Z" fill="#E1E1E1"/>
<path d="M29.0405 13.6794L24.9507 9.59338C24.5234 9.1665 23.8311 9.16687 23.4043 9.59412C22.9771 10.0215 22.9775 10.714 23.4048 11.1409L27.4941 15.2266C27.9204 15.6531 27.9204 16.3469 27.4941 16.7733L23.3999 20.9189C22.9751 21.3486 22.9795 22.0411 23.4092 22.4657C23.5317 22.5865 23.6753 22.6725 23.8276 22.724C23.9409 22.7622 24.0591 22.7812 24.1777 22.7812C24.46 22.7812 24.7422 22.6727 24.9561 22.4561L29.0435 18.3175C30.3203 17.038 30.3193 14.9584 29.0405 13.6794Z" fill="#E1E1E1"/>
<path d="M23.4121 14.9062H8.76367C8.15967 14.9062 7.66992 15.3959 7.66992 16C7.66992 16.6041 8.15967 17.0938 8.76367 17.0938H23.4121C24.0161 17.0938 24.5059 16.6041 24.5059 16C24.5059 15.3959 24.0161 14.9062 23.4121 14.9062Z" fill="#E1E1E1"/>
</svg>
