<svg width="32" height="32" viewBox="0 0 32 32" fill="none" xmlns="http://www.w3.org/2000/svg">
<path d="M28.9062 17.9974C29.5103 17.9974 30 17.4936 30 16.8721V9.50128C30 7.01927 28.0374 5 25.625 5H6.375C3.96263 5 2 7.01927 2 9.50128V22.4987C2 24.9807 3.96263 27 6.375 27H25.625C28.0374 27 30 24.9807 30 22.4987C30 21.8772 29.5103 21.3734 28.9062 21.3734C28.3022 21.3734 27.8125 21.8772 27.8125 22.4987C27.8125 23.7397 26.8312 24.7494 25.625 24.7494H6.375C5.16881 24.7494 4.1875 23.7397 4.1875 22.4987V9.73973L13.6897 15.819C14.4023 16.2748 15.2011 16.5027 16 16.5027C16.7989 16.5027 17.5977 16.2748 18.3103 15.819L27.8125 9.73973V16.8721C27.8125 17.4936 28.3022 17.9974 28.9062 17.9974ZM17.1551 13.9077C16.4426 14.3635 15.5574 14.3636 14.8449 13.9077L5.10018 7.67331C5.45937 7.4074 5.89971 7.25064 6.375 7.25064H25.625C26.1003 7.25064 26.5406 7.40745 26.8998 7.67337L17.1551 13.9077Z" fill="#E1E1E1"/>
</svg>
