<svg width="15" height="15" viewBox="0 0 15 15" fill="none" xmlns="http://www.w3.org/2000/svg">
<path d="M14.5 5.17241C14.5 5.42979 14.4128 5.77746 14.2204 6.21274C14.0308 6.64167 13.7542 7.12231 13.412 7.63587C12.7277 8.66294 11.8077 9.78218 10.877 10.8244C9.94828 11.8646 9.01821 12.8176 8.31958 13.5114C7.98368 13.8449 7.70181 14.1179 7.5 14.3112C7.29819 14.1179 7.01632 13.8449 6.68042 13.5114C5.98179 12.8176 5.05172 11.8646 4.12295 10.8244C3.1923 9.78218 2.27232 8.66294 1.58797 7.63587C1.24577 7.12231 0.969167 6.64167 0.779589 6.21274C0.587205 5.77746 0.5 5.42979 0.5 5.17241C0.5 3.95542 1.21478 2.79953 2.48057 1.92657C3.74425 1.05506 5.51736 0.5 7.5 0.5C9.48264 0.5 11.2557 1.05506 12.5194 1.92657C13.7852 2.79953 14.5 3.95542 14.5 5.17241Z" stroke="#495A13"/>
<path d="M14.5 4.5C14.5 5.49801 13.8232 6.48696 12.5461 7.25323C11.2789 8.01354 9.49603 8.5 7.5 8.5C5.50397 8.5 3.72112 8.01354 2.45395 7.25323C1.17682 6.48696 0.5 5.49801 0.5 4.5C0.5 3.50199 1.17682 2.51304 2.45395 1.74677C3.72112 0.986464 5.50397 0.5 7.5 0.5C9.49603 0.5 11.2789 0.986464 12.5461 1.74677C13.8232 2.51304 14.5 3.50199 14.5 4.5Z" stroke="#495A13"/>
</svg>
