<svg width="32" height="32" viewBox="0 0 32 32" fill="none" xmlns="http://www.w3.org/2000/svg">
<path d="M30 25.625V6.375C30 3.96263 28.0374 2 25.625 2H24.5312C23.9272 2 23.4375 2.48967 23.4375 3.09375C23.4375 3.69783 23.9272 4.1875 24.5312 4.1875H25.625C26.8312 4.1875 27.8125 5.16881 27.8125 6.375V25.625C27.8125 26.8312 26.8312 27.8125 25.625 27.8125H6.375C5.16881 27.8125 4.1875 26.8312 4.1875 25.625V6.375C4.1875 5.16881 5.16881 4.1875 6.375 4.1875H7.46875C8.07283 4.1875 8.5625 3.69783 8.5625 3.09375C8.5625 2.48967 8.07283 2 7.46875 2H6.375C3.96263 2 2 3.96263 2 6.375V25.625C2 28.0374 3.96263 30 6.375 30H25.625C28.0374 30 30 28.0374 30 25.625Z" fill="#E1E1E1"/>
<path d="M15.2192 4.51554L15.2266 4.50821C15.6531 4.08176 16.347 4.08176 16.7757 4.51045L20.8617 8.57286C21.2901 8.99877 21.9826 8.99674 22.4085 8.56837C22.8343 8.14001 22.8324 7.4475 22.404 7.02159L18.3202 2.96143C17.0422 1.68344 14.9635 1.68207 13.6838 2.95744L9.54657 7.01656C9.3282 7.23072 9.21877 7.51389 9.21877 7.79734C9.21877 8.07373 9.3229 8.35039 9.53175 8.56318C9.95481 8.99439 10.6473 9.00101 11.0785 8.57795L15.2192 4.51554Z" fill="#E1E1E1"/>
<path d="M17.0938 8.5625V20.2109C17.0938 20.815 16.6041 21.3047 16 21.3047C15.3959 21.3047 14.9062 20.815 14.9062 20.2109V8.5625C14.9062 7.95842 15.3959 7.46875 16 7.46875C16.6041 7.46875 17.0938 7.95842 17.0938 8.5625Z" fill="#E1E1E1"/>
</svg>
