<svg width="32" height="32" viewBox="0 0 32 32" fill="none" xmlns="http://www.w3.org/2000/svg">
<path d="M20.4072 15.1744C20.6761 14.9476 20.9836 14.697 21.3092 14.4317C23.7108 12.4745 27 9.79401 27 6.97656V5.28125C27 3.47197 25.4817 2 23.6154 2H8.38462C6.51834 2 5 3.47197 5 5.28125V6.97656C5 9.79401 8.28917 12.4745 10.6908 14.4317C11.0164 14.6971 11.3239 14.9476 11.5928 15.1744C11.8483 15.39 11.9949 15.6909 11.9949 16.0001C11.9949 16.3092 11.8484 16.6101 11.5928 16.8256C11.3239 17.0524 11.0164 17.303 10.6908 17.5683C8.28917 19.5255 5 22.206 5 25.0234V26.7188C5 28.528 6.51834 30 8.38462 30H23.6154C25.4817 30 27 28.528 27 26.7188C27 26.1147 26.4949 25.625 25.8718 25.625C25.2487 25.625 24.7436 26.1147 24.7436 26.7188C24.7436 27.3218 24.2375 27.8125 23.6154 27.8125H8.38462C7.76252 27.8125 7.25641 27.3218 7.25641 26.7188V25.0234C7.25641 23.2249 10.3152 20.7322 12.1427 19.2428C12.4758 18.9713 12.7905 18.7149 13.0738 18.4759C13.8221 17.8448 14.2513 16.9423 14.2513 16C14.2513 15.0576 13.8221 14.1552 13.0739 13.524C12.7905 13.2851 12.4759 13.0287 12.1428 12.7572C10.3152 11.2678 7.25641 8.77513 7.25641 6.97656V5.28125C7.25641 4.67816 7.76252 4.1875 8.38462 4.1875H23.6154C24.2375 4.1875 24.7436 4.67816 24.7436 5.28125V6.97656C24.7436 8.77513 21.6848 11.2678 19.8573 12.7572C19.5242 13.0286 19.2095 13.285 18.9262 13.524C18.1779 14.1552 17.7487 15.0576 17.7487 16C17.7487 16.9424 18.1779 17.8448 18.9261 18.4759C19.2214 18.7249 19.5504 18.9919 19.8987 19.2746C20.9964 20.1653 22.2404 21.1748 23.2223 22.2489C23.6356 22.7009 24.3486 22.7425 24.8149 22.3419C25.2812 21.9413 25.3242 21.2501 24.911 20.798C23.8176 19.6019 22.4477 18.4904 21.347 17.5971C21.0072 17.3214 20.6862 17.0609 20.4072 16.8256C20.1517 16.61 20.0051 16.3091 20.0051 16C20.0051 15.6909 20.1517 15.3899 20.4072 15.1744Z" fill="#E1E1E1"/>
</svg>
