<svg width="21" height="21" viewBox="0 0 21 21" fill="none" xmlns="http://www.w3.org/2000/svg">
<path d="M16.6779 11.6298C16.6827 11.6643 16.6877 11.7019 16.6926 11.7424C16.7218 11.9807 16.7504 12.3151 16.7478 12.6967C16.7424 13.4737 16.6079 14.3818 16.1511 15.0865C15.9534 15.3915 15.5018 15.7761 14.8159 16.1122C14.1422 16.4424 13.2859 16.704 12.3317 16.7952C10.4322 16.9767 8.15606 16.4836 6.1472 14.5204C4.09325 12.5131 3.33105 10.6065 3.16546 9.13379C3.08226 8.39381 3.14895 7.75877 3.28123 7.26774C3.41658 6.7653 3.61072 6.44778 3.74996 6.30981C3.88362 6.17737 4.17719 6.02456 4.62833 5.8804C5.05999 5.74246 5.568 5.63289 6.06203 5.54824C6.55389 5.46396 7.02029 5.40633 7.3645 5.36976C7.48102 5.35738 7.58318 5.34746 7.66718 5.33975L9.00207 6.97139C8.86473 7.44584 8.48455 7.8506 8.04683 8.16871C7.80688 8.34309 7.57061 8.47591 7.39368 8.56514C7.30572 8.60951 7.23372 8.64245 7.18497 8.6638C7.16063 8.67446 7.14218 8.6822 7.13054 8.68698L7.11835 8.69193L7.11714 8.69241L7.11688 8.69252L7.11667 8.6926L7.11638 8.69271L7.11633 8.69273L6.4189 8.96295L6.93639 9.50418L8.62335 11.2685L8.65309 11.2996L8.6877 11.3252L11.5331 13.4265L12.1756 13.901L12.3217 13.1157C12.4213 12.5806 12.5109 12.279 12.6566 12.0647C12.787 11.8729 12.9983 11.7013 13.4674 11.5356L13.5325 11.5126L13.589 11.4728C14.0697 11.1338 14.836 11.1399 15.6076 11.306C15.9737 11.3848 16.3041 11.4916 16.5437 11.5793C16.5926 11.5971 16.6375 11.6141 16.6779 11.6298Z" stroke="white"/>
</svg>
