<svg width="32" height="32" viewBox="0 0 32 32" fill="none" xmlns="http://www.w3.org/2000/svg">
<path d="M27.3632 7.06073L16.3811 2.09391C16.1031 1.96818 15.7857 1.96867 15.5081 2.09555L4.63316 7.06237C4.24793 7.23836 4 7.62833 4 8.05845V16.6822C4 19.9414 5.26412 23.273 7.46828 25.8228C8.57696 27.1053 9.85503 28.1202 11.2671 28.8392C12.7796 29.6095 14.372 30 16 30C18.2795 30 20.4982 29.2483 22.4162 27.8261C22.8947 27.4713 23.0002 26.7886 22.652 26.3011C22.3038 25.8136 21.6336 25.7062 21.1552 26.0609C19.606 27.2096 17.8234 27.8168 16 27.8168C10.8412 27.8168 6.14291 22.5097 6.14291 16.6823V8.76545L15.9486 4.28698L25.8571 8.7683V16.6823C25.8571 18.6924 25.2904 20.7268 24.218 22.5652C23.9157 23.0835 24.083 23.7533 24.5917 24.0613C25.1005 24.3693 25.7579 24.1988 26.0602 23.6805C27.3293 21.5048 28 19.0849 28 16.6823V8.05851C27.9999 7.62691 27.7504 7.23584 27.3632 7.06073Z" fill="#E1E1E1"/>
</svg>
