<svg width="32" height="32" viewBox="0 0 32 32" fill="none" xmlns="http://www.w3.org/2000/svg">
<path d="M7.74219 5.55469H5.55469V7.74219H7.74219V5.55469Z" fill="#E1E1E1"/>
<path fill-rule="evenodd" clip-rule="evenodd" d="M8.01562 11.2969H5.28125C3.47192 11.2969 2 9.82495 2 8.01562V5.28125C2 3.47192 3.47192 2 5.28125 2H8.01562C9.82495 2 11.2969 3.47192 11.2969 5.28125V8.01562C11.2969 9.82495 9.82495 11.2969 8.01562 11.2969ZM5.28125 4.1875C4.67822 4.1875 4.1875 4.67822 4.1875 5.28125V8.01562C4.1875 8.61865 4.67822 9.10938 5.28125 9.10938H8.01562C8.61865 9.10938 9.10938 8.61865 9.10938 8.01562V5.28125C9.10938 4.67822 8.61865 4.1875 8.01562 4.1875H5.28125Z" fill="#E1E1E1"/>
<path d="M23.875 21.4141H26.0625V23.6016H23.875V21.4141Z" fill="#E1E1E1"/>
<path fill-rule="evenodd" clip-rule="evenodd" d="M23.875 25.7891V23.6016H21.6875V21.4141H17.3125V19.2812H15.125V14.9609H12.9375V12.7734H17.3125V17.1484H19.5V19.3359H21.6875V17.1484H23.875V19.2812H30V14.9062H27.8125V12.7734H23.8203V14.9609H21.6875V17.1484H19.5V12.7734H17.3125V8.39844H19.5V6.21094H17.3125V8.39844H15.125V4.1875H17.3125V2H15.125V4.1875H12.9375V8.39844H15.125V10.5859H12.9375V12.7734H8.5625V14.9609H6.375V12.7734H4.1875V14.9609H2V19.3359H4.1875V14.9609H6.375V17.1484H8.50781V19.3359H10.6953V17.1484H8.5625V14.9609H12.9375V19.3359H15.125V21.4688H12.9375V25.625H15.125V30H17.3125V27.8125H19.4453V30H21.6328V27.8125H19.5V25.625H15.125V21.4688H17.3125V23.6016H21.6875V25.7891H23.875ZM27.8125 17.0938H23.875V14.9609H27.8125V17.0938Z" fill="#E1E1E1"/>
<path d="M27.8125 25.7891V27.9766H26.0625V30H23.875V25.7891H27.8125Z" fill="#E1E1E1"/>
<path d="M27.8125 25.7891V21.4141H30V25.7891H27.8125Z" fill="#E1E1E1"/>
<path d="M5.55469 24.2578H7.74219V26.4453H5.55469V24.2578Z" fill="#E1E1E1"/>
<path fill-rule="evenodd" clip-rule="evenodd" d="M8.01562 20.7031H5.28125C3.47192 20.7031 2 22.175 2 23.9844V26.7188C2 28.5281 3.47192 30 5.28125 30H8.01562C9.82495 30 11.2969 28.5281 11.2969 26.7188V23.9844C11.2969 22.175 9.82495 20.7031 8.01562 20.7031ZM9.10938 26.7188C9.10938 27.3218 8.61865 27.8125 8.01562 27.8125H5.28125C4.67822 27.8125 4.1875 27.3218 4.1875 26.7188V23.9844C4.1875 23.3813 4.67822 22.8906 5.28125 22.8906H8.01562C8.61865 22.8906 9.10938 23.3813 9.10938 23.9844V26.7188Z" fill="#E1E1E1"/>
<path d="M24.2578 5.55469H26.4453V7.74219H24.2578V5.55469Z" fill="#E1E1E1"/>
<path fill-rule="evenodd" clip-rule="evenodd" d="M26.7188 2H23.9844C22.175 2 20.7031 3.47192 20.7031 5.28125V8.01562C20.7031 9.82495 22.175 11.2969 23.9844 11.2969H26.7188C28.5281 11.2969 30 9.82495 30 8.01562V5.28125C30 3.47192 28.5281 2 26.7188 2ZM27.8125 8.01562C27.8125 8.61865 27.3218 9.10938 26.7188 9.10938H23.9844C23.3813 9.10938 22.8906 8.61865 22.8906 8.01562V5.28125C22.8906 4.67822 23.3813 4.1875 23.9844 4.1875H26.7188C27.3218 4.1875 27.8125 4.67822 27.8125 5.28125V8.01562Z" fill="#E1E1E1"/>
</svg>
