<svg width="32" height="32" viewBox="0 0 32 32" fill="none" xmlns="http://www.w3.org/2000/svg">
<path fill-rule="evenodd" clip-rule="evenodd" d="M20.4567 15.3885C21.8171 15.8366 23.1086 16.4927 24.2948 17.3451C24.7853 17.6976 24.8972 18.381 24.5447 18.8716C24.1922 19.362 23.5087 19.474 23.0182 19.1215C21.0437 17.7025 18.724 16.9268 16.2923 16.8693C16.1954 16.8731 16.098 16.875 16.0002 16.875C15.9031 16.875 15.8065 16.8731 15.7103 16.8694C10.1568 17.0037 5.34786 20.9864 4.21277 26.4385C4.14184 26.7791 4.22628 27.1283 4.44443 27.3965C4.57076 27.5519 4.85245 27.8125 5.31937 27.8125H16.6018C17.2059 27.8125 17.6955 28.3022 17.6955 28.9062C17.6955 29.5103 17.2059 30 16.6018 30H5.31937C4.31706 30 3.37955 29.5541 2.74731 28.7767C2.11195 27.9954 1.86547 26.9806 2.07121 25.9927C2.72762 22.8395 4.46652 19.9701 6.96749 17.913C8.3314 16.7911 9.88972 15.9403 11.5505 15.3936C9.73785 14.0358 8.56272 11.8713 8.56272 9.4375C8.56272 5.33648 11.8992 2 16.0002 2C20.1013 2 23.4377 5.33648 23.4377 9.4375C23.4377 11.8683 22.2655 14.0305 20.4567 15.3885ZM16.0002 14.6784C16.0891 14.6784 16.1778 14.6792 16.2665 14.6808C19.0381 14.5417 21.2502 12.2431 21.2502 9.4375C21.2502 6.54262 18.8951 4.1875 16.0002 4.1875C13.1053 4.1875 10.7502 6.54262 10.7502 9.4375C10.7502 12.2436 12.9632 14.5426 15.7355 14.6809C15.8237 14.6792 15.912 14.6784 16.0002 14.6784Z" fill="#E1E1E1"/>
<path d="M29.6797 22.5704L26.8984 25.3516L29.6797 28.1329C30.1068 28.56 30.1068 29.2526 29.6797 29.6798C29.4661 29.8933 29.1862 30.0001 28.9063 30.0001C28.6263 30.0001 28.3464 29.8933 28.1329 29.6798L25.3516 26.8985L22.5703 29.6798C22.3567 29.8933 22.0768 30.0001 21.7969 30.0001C21.5169 30.0001 21.2371 29.8933 21.0235 29.6797C20.5963 29.2526 20.5963 28.56 21.0235 28.1329L23.8047 25.3516L21.0235 22.5703C20.5963 22.1432 20.5964 21.4507 21.0235 21.0235C21.4506 20.5963 22.1431 20.5963 22.5703 21.0235L25.3516 23.8048L28.1329 21.0236C28.56 20.5964 29.2525 20.5964 29.6797 21.0236C30.1068 21.4507 30.1068 22.1432 29.6797 22.5704Z" fill="#E1E1E1"/>
</svg>
