<svg width="32" height="32" viewBox="0 0 32 32" fill="none" xmlns="http://www.w3.org/2000/svg">
<path d="M18.4283 4.47928C18.1693 5.07706 17.4748 5.35182 16.877 5.0929C15.7528 4.606 14.5554 4.35929 13.3196 4.35929C8.37862 4.35929 4.35925 8.37866 4.35925 13.3198C4.35925 18.261 8.37862 22.2803 13.3196 22.2803C18.2606 22.2803 22.28 18.261 22.28 13.3198C22.28 12.2125 22.0807 11.1315 21.6874 10.1077C21.4538 9.49969 21.7574 8.81713 22.3656 8.58351C22.9737 8.34987 23.6561 8.65346 23.8897 9.26168C24.387 10.5562 24.6392 11.9212 24.6392 13.3198C24.6392 15.9317 23.7503 18.3393 22.2587 20.257L22.0898 20.4741L26.8008 25.1852C26.828 25.2124 26.8541 25.2401 26.8791 25.2683L26.8916 25.2825L26.9058 25.2951C26.934 25.3201 26.9618 25.3462 26.989 25.3734L29.4981 27.8826C30.1124 28.4969 30.1318 29.3175 29.7246 29.7246C29.3175 30.1318 28.4969 30.1124 27.8826 29.4981L25.3734 26.9889C25.3462 26.9617 25.3201 26.934 25.2952 26.9057L25.2826 26.8916L25.2684 26.879C25.2402 26.854 25.2125 26.8279 25.1852 26.8007L20.4743 22.0897L20.2572 22.2586C18.3394 23.7505 15.9317 24.6396 13.3196 24.6396C7.07821 24.6396 2 19.5613 2 13.3198C2 7.0783 7.07821 2 13.3196 2C14.8811 2 16.393 2.31223 17.8146 2.92796C18.4124 3.18688 18.6871 3.88132 18.4283 4.47928Z" fill="#E1E1E1"/>
</svg>
