<svg width="32" height="32" viewBox="0 0 32 32" fill="none" xmlns="http://www.w3.org/2000/svg">
<path d="M9.65625 16C9.65625 12.5022 12.502 9.65625 16 9.65625C19.498 9.65625 22.3438 12.5022 22.3438 16C22.3438 16.6062 22.2581 17.2063 22.0894 17.7837C21.9197 18.3633 21.3125 18.696 20.7324 18.5264C20.1526 18.3567 19.8201 17.7493 19.9897 17.1694C20.1003 16.7917 20.1562 16.3982 20.1562 16C20.1562 13.7083 18.2917 11.8438 16 11.8438C13.7083 11.8438 11.8438 13.7083 11.8438 16C11.8438 18.2917 13.7083 20.1562 16 20.1562C16.4292 20.1562 16.8516 20.0913 17.2559 19.9634C17.8318 19.7812 18.4465 20.1003 18.6287 20.6763C18.811 21.2522 18.4919 21.8667 17.916 22.0491C17.2981 22.2446 16.6533 22.3438 16 22.3438C12.502 22.3438 9.65625 19.4978 9.65625 16Z" fill="#E1E1E1"/>
<path fill-rule="evenodd" clip-rule="evenodd" d="M26.168 12.1719H26.7188C28.5281 12.1719 30 13.6438 30 15.4531V16.5469C30 18.3562 28.5281 19.8281 26.7188 19.8281H26.168C26.0229 19.8281 25.8916 19.9194 25.8333 20.0608L25.825 20.0808C25.7661 20.2227 25.7942 20.3804 25.8967 20.4829L26.2864 20.8726C26.906 21.4922 27.2473 22.3162 27.2473 23.1926C27.2473 24.0691 26.906 24.8931 26.2864 25.5127L25.5129 26.2861C24.8931 26.906 24.0691 27.2473 23.1926 27.2473C22.3162 27.2473 21.4922 26.906 20.8726 26.2861L20.4829 25.8967C20.3806 25.7942 20.2227 25.7661 20.0808 25.825L20.0593 25.8337C19.9194 25.8916 19.8281 26.0229 19.8281 26.1677V26.7188C19.8281 28.5281 18.3562 30 16.5469 30H15.4531C13.6438 30 12.1719 28.5281 12.1719 26.7188V26.1677C12.1719 26.0229 12.0806 25.8916 11.9395 25.8333L11.9187 25.8247C11.7776 25.7661 11.6194 25.7942 11.5171 25.8967L11.1274 26.2861C10.7134 26.7002 10.2083 26.99 9.65723 27.1367C9.38354 27.2097 9.09839 27.2473 8.80737 27.2473C7.93091 27.2473 7.10693 26.906 6.48706 26.2861L5.71362 25.5127C5.09399 24.8931 4.75269 24.0691 4.75269 23.1926C4.75269 22.3162 5.09399 21.4922 5.71387 20.8723L6.10327 20.4829C6.20557 20.3804 6.23389 20.2224 6.17505 20.0806L6.16528 20.0571C6.1084 19.9194 5.97705 19.8281 5.83203 19.8281H5.28125C3.47192 19.8281 2 18.3562 2 16.5469V15.4531C2 13.6438 3.47192 12.1719 5.28125 12.1719H5.83203C5.97705 12.1719 6.1084 12.0806 6.16675 11.9392L6.17334 11.9233C6.23389 11.7773 6.20581 11.6196 6.10327 11.5171L5.71387 11.1274C4.43433 9.84814 4.43433 7.7666 5.71387 6.48706L6.48706 5.71387C7.10693 5.09399 7.93091 4.75269 8.80737 4.75269C9.68384 4.75269 10.5078 5.09399 11.1277 5.71387L11.5171 6.10327C11.6196 6.20581 11.7776 6.23389 11.9192 6.17505L11.9407 6.16626C12.0808 6.1084 12.1719 5.97705 12.1719 5.83228V5.28125C12.1719 3.47192 13.6438 2 15.4531 2H16.5469C18.3562 2 19.8281 3.47192 19.8281 5.28125V5.83228C19.8281 5.97705 19.9194 6.1084 20.0605 6.16675L20.0813 6.17529C20.2224 6.23389 20.3806 6.20581 20.4832 6.10327L20.8726 5.71387C21.4922 5.09399 22.3162 4.75269 23.1926 4.75269C24.0691 4.75269 24.8931 5.09399 25.5129 5.71387L26.2864 6.4873C27.5657 7.7666 27.5657 9.84814 26.2864 11.1277L25.8967 11.5171C25.8333 11.5808 25.7983 11.6655 25.7949 11.7546C25.793 11.8093 25.8027 11.8655 25.8252 11.9194L25.8347 11.9429C25.8916 12.0806 26.0229 12.1719 26.168 12.1719ZM26.7188 17.6406C27.3218 17.6406 27.8125 17.1499 27.8125 16.5469V15.4531C27.8125 14.8501 27.3218 14.3594 26.7188 14.3594H26.168C25.134 14.3594 24.2092 13.7373 23.8115 12.7744L23.8032 12.7544C23.405 11.7957 23.6189 10.7014 24.3499 9.97021L24.7395 9.58081C25.166 9.1543 25.166 8.46045 24.7395 8.03394L23.9661 7.2605C23.7595 7.05396 23.4849 6.94019 23.1926 6.94019C22.9004 6.94019 22.6257 7.05396 22.4192 7.2605L22.0298 7.65015C21.2986 8.3811 20.2041 8.59497 19.2417 8.19507L19.2268 8.18896C18.2627 7.79102 17.6406 6.86597 17.6406 5.83228V5.28125C17.6406 4.67822 17.1499 4.1875 16.5469 4.1875H15.4531C14.8501 4.1875 14.3594 4.67822 14.3594 5.28125V5.83228C14.3594 6.86597 13.7373 7.79102 12.7744 8.18848L12.7588 8.19482C11.7959 8.59497 10.7014 8.3811 9.97021 7.65015L9.58081 7.2605C9.37427 7.05396 9.09961 6.94019 8.80737 6.94019C8.51514 6.94019 8.24072 7.05396 8.03394 7.2605L7.2605 8.03394C6.83398 8.46045 6.83398 9.1543 7.2605 9.58081L7.65015 9.97021C8.3811 10.7014 8.59497 11.7957 8.19507 12.7585L8.18994 12.7708C7.79102 13.7373 6.86597 14.3594 5.83203 14.3594H5.28125C4.67822 14.3594 4.1875 14.8501 4.1875 15.4531V16.5469C4.1875 17.1499 4.67822 17.6406 5.28125 17.6406H5.83203C6.86597 17.6406 7.79077 18.2627 8.18848 19.2256L8.19556 19.2429C8.59473 20.2053 8.38086 21.2991 7.65015 22.0298L7.2605 22.4192C7.05396 22.6257 6.94019 22.9004 6.94019 23.1926C6.94019 23.4849 7.05396 23.7593 7.2605 23.9661L8.03394 24.7395C8.24048 24.946 8.51514 25.0598 8.80737 25.0598C9.09961 25.0598 9.37427 24.946 9.58081 24.7395L9.97021 24.3499C10.4568 23.8635 11.1042 23.606 11.7666 23.606C12.0996 23.606 12.4363 23.6709 12.7583 23.8049L12.7732 23.811C13.7373 24.209 14.3594 25.134 14.3594 26.1677V26.7188C14.3594 27.147 14.6067 27.5186 14.9661 27.698C15.1128 27.7712 15.2783 27.8125 15.4531 27.8125H16.5469C17.1499 27.8125 17.6406 27.3218 17.6406 26.7188V26.1677C17.6406 25.134 18.2627 24.209 19.2256 23.8115L19.2412 23.8052C20.2041 23.405 21.2986 23.6189 22.0298 24.3499L22.4192 24.7395C22.6257 24.946 22.9004 25.0598 23.1926 25.0598C23.3813 25.0598 23.5627 25.0125 23.7231 24.9233C23.811 24.8743 23.8928 24.8127 23.9661 24.7395L24.7395 23.9661C24.946 23.7593 25.0598 23.4849 25.0598 23.1926C25.0598 22.9004 24.946 22.6257 24.7395 22.4192L24.3499 22.0298C23.6194 21.2991 23.4053 20.2053 23.8044 19.2429L23.8115 19.2256C24.209 18.2627 25.134 17.6406 26.168 17.6406H26.7188Z" fill="#E1E1E1"/>
</svg>
