<svg width="32" height="32" viewBox="0 0 32 32" fill="none" xmlns="http://www.w3.org/2000/svg">
<path fill-rule="evenodd" clip-rule="evenodd" d="M7.14062 2H5.82812C3.7171 2 2 3.7171 2 5.82812V26.1719C2 28.2829 3.7171 30 5.82812 30H7.14062C9.25165 30 10.9688 28.2829 10.9688 26.1719V5.82812C10.9688 3.7171 9.25165 2 7.14062 2ZM8.78125 26.1719C8.78125 27.0764 8.0451 27.8125 7.14062 27.8125H5.82812C4.92365 27.8125 4.1875 27.0764 4.1875 26.1719V5.82812C4.1875 4.92365 4.92365 4.1875 5.82812 4.1875H7.14062C8.0451 4.1875 8.78125 4.92365 8.78125 5.82812V26.1719Z" fill="#E1E1E1"/>
<path d="M25.625 30H17.5748C15.1626 30 13.1998 28.0372 13.1998 25.625V23.4375C13.1998 22.8334 13.6895 22.3438 14.2936 22.3438C14.8977 22.3438 15.3873 22.8334 15.3873 23.4375V25.625C15.3873 26.8311 16.3687 27.8125 17.5748 27.8125H25.625C26.8311 27.8125 27.8125 26.8311 27.8125 25.625V6.375C27.8125 5.16888 26.8311 4.1875 25.625 4.1875H17.5748C16.3687 4.1875 15.3873 5.16888 15.3873 6.375V8.5625C15.3873 9.16663 14.8977 9.65625 14.2936 9.65625C13.6895 9.65625 13.1998 9.16663 13.1998 8.5625V6.375C13.1998 3.96277 15.1626 2 17.5748 2H25.625C28.0372 2 30 3.96277 30 6.375V25.625C30 28.0372 28.0372 30 25.625 30Z" fill="#E1E1E1"/>
<path d="M23.9032 17.2006L20.5433 20.5656C20.0986 21.0107 19.377 21.0116 18.9313 20.5668C18.7083 20.3442 18.5968 20.0524 18.5968 19.7602C18.5968 19.5919 18.634 19.4235 18.7079 19.2689C18.7621 19.1556 18.8361 19.0493 18.9301 18.9553L20.7433 17.1395H14.3397C13.7104 17.1395 13.1998 16.6293 13.1998 16C13.1998 15.3707 13.7104 14.8605 14.3397 14.8605H20.7433L18.9301 13.0443C18.4849 12.5991 18.4857 11.8775 18.9313 11.4332C19.377 10.9884 20.0986 10.9888 20.5433 11.4344L23.9041 14.7999C24.5654 15.4612 24.5654 16.5388 23.9032 17.2006Z" fill="#E1E1E1"/>
</svg>
