<svg width="32" height="32" viewBox="0 0 32 32" fill="none" xmlns="http://www.w3.org/2000/svg">
<path d="M24.4053 8.51529C27.0725 10.4889 28.7109 12.7547 29.2917 13.6371C30.2361 15.0726 30.2361 16.9274 29.2917 18.3629C28.9622 18.8638 28.2844 19.0054 27.7783 18.6792C27.2722 18.353 27.1289 17.6825 27.4585 17.1813C27.9309 16.4637 27.9309 15.5363 27.4585 14.8187C25.7102 12.1617 21.3347 7.665 16.0244 7.665C10.7141 7.665 6.31152 12.1574 4.54736 14.8119C4.06763 15.5337 4.06763 16.4663 4.54736 17.1881C6.31152 19.8426 10.7141 24.3352 16.0244 24.3352C19.7019 24.3352 22.7407 22.2299 24.6426 20.4636C25.0833 20.0545 25.7751 20.0763 26.1887 20.5124C26.6021 20.9483 26.5798 21.6333 26.1394 22.0424C23.9497 24.076 20.4172 26.5 16.0247 26.5C13.1711 26.5 10.3491 25.4883 7.63672 23.4929C4.95752 21.5222 3.30591 19.2593 2.71997 18.3779C1.76001 16.9334 1.76001 15.0666 2.71997 13.6221C3.30591 12.7407 4.95752 10.4778 7.63672 8.50708C10.3491 6.5117 13.1711 5.5 16.0247 5.5C18.8818 5.5 21.7017 6.51436 24.4053 8.51529Z" fill="#E1E1E1"/>
<path d="M16.0554 18.1111C17.2334 18.1111 18.1882 17.1661 18.1882 16.0002C18.1882 14.8344 17.2334 13.8894 16.0554 13.8894C14.8774 13.8894 13.9226 14.8344 13.9226 16.0002C13.9226 17.1661 14.8774 18.1111 16.0554 18.1111Z" fill="#E1E1E1"/>
<path fill-rule="evenodd" clip-rule="evenodd" d="M16.0554 9.83C12.6177 9.83 9.82104 12.5979 9.82104 16C9.82104 19.4021 12.6177 22.17 16.0554 22.17C19.4929 22.17 22.2896 19.4021 22.2896 16C22.2896 12.5979 19.4929 9.83 16.0554 9.83ZM16.0554 20.0052C13.824 20.0052 12.0085 18.2085 12.0085 16C12.0085 13.7915 13.824 11.9948 16.0554 11.9948C18.2869 11.9948 20.1021 13.7915 20.1021 16C20.1021 18.2085 18.2869 20.0052 16.0554 20.0052Z" fill="#E1E1E1"/>
</svg>
