<svg width="32" height="32" viewBox="0 0 32 32" fill="none" xmlns="http://www.w3.org/2000/svg">
<path d="M29.755 8.36475C29.5472 8.10925 29.2355 7.96094 28.9063 7.96094H9.09494L9.01378 7.21544L9.01088 7.19148C8.6226 4.23191 6.07876 2 3.09375 2C2.48967 2 2 2.48967 2 3.09375C2 3.69783 2.48967 4.1875 3.09375 4.1875C4.9808 4.1875 6.58954 5.59565 6.8405 7.46481L8.14059 19.4086C7.00363 19.9246 6.21094 21.0707 6.21094 22.3984C6.21094 22.4076 6.21105 22.4167 6.21127 22.4258C6.21105 22.4349 6.21094 22.444 6.21094 22.4531C6.21094 24.2624 7.68291 25.7344 9.49219 25.7344H9.93724C9.826 26.0605 9.76563 26.41 9.76563 26.7734C9.76563 28.5525 11.213 30 12.9922 30C14.7713 30 16.2188 28.5525 16.2188 26.7734C16.2188 26.41 16.1584 26.0605 16.0471 25.7344H20.7654C20.6542 26.0605 20.5938 26.41 20.5938 26.7734C20.5938 28.5525 22.0412 30 23.8204 30C25.5995 30 27.0469 28.5525 27.0469 26.7734C27.0469 24.9943 25.5995 23.5469 23.8204 23.5469H9.49219C8.8891 23.5469 8.39844 23.0562 8.39844 22.4531C8.39844 22.444 8.39833 22.4349 8.39811 22.4258C8.39833 22.4167 8.39844 22.4076 8.39844 22.3984C8.39844 21.7953 8.8891 21.3047 9.49219 21.3047H23.4556C25.3972 21.3047 27.179 20.1034 27.995 18.2443C28.2378 17.6912 27.9862 17.046 27.4331 16.8031C26.88 16.5604 26.2348 16.8119 25.992 17.3651C25.532 18.4131 24.5127 19.1172 23.4556 19.1172H10.3093L9.33305 10.1484H27.5608L27.0257 12.7142C26.9023 13.3055 27.2817 13.8849 27.873 14.0082C27.9483 14.0239 28.0234 14.0315 28.0975 14.0315C28.6045 14.0315 29.0594 13.6769 29.1671 13.1608L29.9769 9.27803C30.0442 8.9557 29.9627 8.62025 29.755 8.36475ZM23.8203 25.7344C24.3933 25.7344 24.8594 26.2005 24.8594 26.7734C24.8594 27.3464 24.3933 27.8125 23.8203 27.8125C23.2474 27.8125 22.7813 27.3464 22.7813 26.7734C22.7813 26.2005 23.2474 25.7344 23.8203 25.7344ZM12.9922 25.7344C13.5652 25.7344 14.0313 26.2005 14.0313 26.7734C14.0313 27.3464 13.5652 27.8125 12.9922 27.8125C12.4192 27.8125 11.9531 27.3464 11.9531 26.7734C11.9531 26.2005 12.4192 25.7344 12.9922 25.7344Z" fill="#E1E1E1"/>
</svg>
