<svg width="32" height="32" viewBox="0 0 32 32" fill="none" xmlns="http://www.w3.org/2000/svg">
<path d="M4.21053 16C4.21053 9.48885 9.48885 4.21053 16 4.21053C17.4855 4.21053 18.9043 4.48472 20.2104 4.98428C20.7806 5.20234 21.4195 4.91693 21.6376 4.34678C21.8557 3.77664 21.5702 3.13768 21.0001 2.91961C19.4458 2.32514 17.7596 2 16 2C8.26801 2 2 8.26801 2 16C2 23.732 8.26801 30 16 30C23.732 30 30 23.732 30 16C30 14.6119 29.7976 13.2691 29.4201 12.0005C29.246 11.4155 28.6305 11.0823 28.0455 11.2564C27.4604 11.4306 27.1273 12.046 27.3014 12.6311C27.6187 13.6972 27.7895 14.8277 27.7895 16C27.7895 22.5111 22.5111 27.7895 16 27.7895C9.48885 27.7895 4.21053 22.5111 4.21053 16Z" fill="#E1E1E1"/>
<path d="M15.139 18.2862C15.2945 18.4566 15.4516 18.4947 15.57 18.4856C15.6901 18.4764 15.8565 18.4111 16.0036 18.2029L24.2203 6.1163C24.5921 5.56942 25.3368 5.42748 25.8837 5.79926C26.4306 6.17104 26.5725 6.91577 26.2007 7.46265L17.9791 19.5564L17.9708 19.5685C16.8811 21.1301 14.7557 21.3481 13.4251 19.9593L9.69361 16.7549C9.19192 16.3241 9.13447 15.5681 9.56529 15.0664C9.99611 14.5647 10.7521 14.5073 11.2538 14.9381L15.0345 18.1847C15.0714 18.2164 15.1063 18.2503 15.139 18.2862Z" fill="#E1E1E1"/>
</svg>
