<svg width="32" height="32" viewBox="0 0 32 32" fill="none" xmlns="http://www.w3.org/2000/svg">
<path d="M27.4937 8.50005L27.4864 8.49261L23.424 4.35189C23.0009 3.92074 23.0075 3.22823 23.4387 2.80516C23.6515 2.59631 23.9282 2.49219 24.2046 2.49219C24.488 2.49219 24.7712 2.60162 24.9854 2.81998L29.0445 6.95726C30.3199 8.23695 30.3185 10.3156 29.0405 11.5936L24.9803 15.6774C24.5544 16.1058 23.8619 16.1077 23.4335 15.6819C23.0052 15.256 23.0032 14.5635 23.4291 14.1351L27.4915 10.0491C27.9202 9.62038 27.9202 8.9265 27.4937 8.50005Z" fill="#E1E1E1"/>
<path d="M20.2109 21.6328H8.5625C7.95842 21.6328 7.46875 22.1225 7.46875 22.7266C7.46875 23.3306 7.95842 23.8203 8.5625 23.8203H20.2109C20.815 23.8203 21.3047 23.3306 21.3047 22.7266C21.3047 22.1225 20.815 21.6328 20.2109 21.6328Z" fill="#E1E1E1"/>
<path d="M4.51532 23.5074L4.508 23.5C4.08154 23.0735 4.08154 22.3796 4.51024 21.9509L8.57265 17.8649C8.99855 17.4365 8.99653 16.744 8.56816 16.3181C8.13979 15.8923 7.44729 15.8942 7.02138 16.3226L2.96122 20.4064C1.68322 21.6844 1.68186 23.7631 2.95722 25.0427L7.01635 29.18C7.2305 29.3984 7.51368 29.5078 7.79712 29.5078C8.07351 29.5078 8.35018 29.4037 8.56297 29.1948C8.99418 28.7718 9.00079 28.0793 8.57773 27.6481L4.51532 23.5074Z" fill="#E1E1E1"/>
<path d="M11.7908 10.3672H23.4392C24.0433 10.3672 24.533 9.87752 24.533 9.27344C24.533 8.66936 24.0433 8.17969 23.4392 8.17969H11.7908C11.1867 8.17969 10.697 8.66936 10.697 9.27344C10.697 9.87752 11.1867 10.3672 11.7908 10.3672Z" fill="#E1E1E1"/>
<path d="M27.8125 18.52V25.625C27.8125 26.8312 26.8312 27.8125 25.625 27.8125H14.2938C13.6897 27.8125 13.2 28.3022 13.2 28.9062C13.2 29.5103 13.6897 30 14.2938 30H25.9422C26.0505 30 26.1552 29.9843 26.254 29.9549C28.3694 29.649 30 27.8238 30 25.625V18.52C30 17.9014 29.5103 17.4 28.9062 17.4C28.3022 17.4 27.8125 17.9014 27.8125 18.52Z" fill="#E1E1E1"/>
<path d="M4.1875 6.375C4.1875 5.16881 5.16881 4.1875 6.375 4.1875H17.6933C18.3045 4.1875 18.8 3.69783 18.8 3.09375C18.8 2.48967 18.3045 2 17.6933 2H5.90672C5.74184 2 5.5854 2.03563 5.44482 2.09952C3.47775 2.52708 2 4.28172 2 6.375V7.46875C2 7.51317 2.00265 7.55697 2.00779 7.6H2V13.48C2 14.0986 2.48967 14.6 3.09375 14.6C3.69783 14.6 4.1875 14.0986 4.1875 13.48V7.6H4.17971C4.18485 7.55697 4.1875 7.51317 4.1875 7.46875V6.375Z" fill="#E1E1E1"/>
</svg>
