<svg width="17" height="22" viewBox="0 0 17 22" fill="none" xmlns="http://www.w3.org/2000/svg">
<path d="M16.3536 4.35355C16.5488 4.15829 16.5488 3.84171 16.3536 3.64645L13.1716 0.464466C12.9763 0.269204 12.6597 0.269204 12.4645 0.464466C12.2692 0.659728 12.2692 0.976311 12.4645 1.17157L15.2929 4L12.4645 6.82843C12.2692 7.02369 12.2692 7.34027 12.4645 7.53553C12.6597 7.7308 12.9763 7.7308 13.1716 7.53553L16.3536 4.35355ZM1 4.5H16V3.5H1V4.5Z" fill="#495A13"/>
<path d="M0.646445 17.6464C0.451183 17.8417 0.451183 18.1583 0.646445 18.3536L3.82843 21.5355C4.02369 21.7308 4.34027 21.7308 4.53553 21.5355C4.73079 21.3403 4.73079 21.0237 4.53553 20.8284L1.70711 18L4.53553 15.1716C4.73079 14.9763 4.73079 14.6597 4.53553 14.4645C4.34027 14.2692 4.02369 14.2692 3.82843 14.4645L0.646445 17.6464ZM16 17.5L0.999999 17.5V18.5L16 18.5V17.5Z" fill="#495A13"/>
</svg>
