<svg width="32" height="32" viewBox="0 0 32 32" fill="none" xmlns="http://www.w3.org/2000/svg">
<path d="M16 6.37496C12.7946 6.37496 9.78125 7.60372 7.51488 9.83468C5.24802 12.0659 4 15.0322 4 18.1875C4 20.229 4.5377 22.2414 5.55556 24.0076C5.75992 24.3625 6.13591 24.562 6.52282 24.562C6.70883 24.562 6.89683 24.5161 7.06994 24.4194C7.60367 24.1213 7.79117 23.4538 7.48859 22.9285C6.66022 21.4907 6.22222 19.8513 6.22222 18.1875C6.22222 12.8801 10.6086 8.56246 16 8.56246H20.0962L17.5997 11.0798C17.1711 11.5119 17.1796 12.2046 17.619 12.6264C17.8348 12.834 18.1151 12.9375 18.3948 12.9375C18.5258 12.9375 18.6567 12.915 18.7808 12.8698C18.9306 12.8154 19.0709 12.728 19.19 12.6079L21.995 9.77951C23.2614 8.50241 23.2542 6.4316 21.9784 5.16329L19.123 2.32417C18.691 1.89497 17.9876 1.89155 17.5516 2.31636C17.1156 2.74141 17.1121 3.43404 17.5437 3.86324L20.0699 6.37496H16Z" fill="#E1E1E1"/>
<path d="M11.309 26.6348C10.7708 26.3447 10.0957 26.5388 9.8006 27.0684C9.50595 27.5981 9.70337 28.2629 10.2411 28.5532C11.996 29.4998 13.9876 30 16 30C19.2054 30 22.2188 28.7712 24.4854 26.5403C26.7517 24.3091 28 21.3428 28 18.1875C28 17.5835 27.5025 17.0935 26.8889 17.0935C26.2753 17.0935 25.7778 17.5832 25.7778 18.1872C25.7778 23.4946 21.3914 27.8125 16 27.8125C14.3596 27.8125 12.7376 27.4053 11.309 26.6348Z" fill="#E1E1E1"/>
</svg>
