<svg width="32" height="32" viewBox="0 0 32 32" fill="none" xmlns="http://www.w3.org/2000/svg">
<path d="M9.23218 10.5334L15.1741 4.50562C15.3804 4.30054 15.6543 4.1875 15.9453 4.1875C16.0701 4.1875 16.1917 4.20825 16.3062 4.24805C16.46 4.30176 16.6011 4.39014 16.7202 4.50928L22.7749 10.5405C22.9885 10.7532 23.2676 10.8594 23.5469 10.8594C23.8274 10.8594 24.1082 10.752 24.3218 10.5376C24.748 10.1096 24.7468 9.41699 24.3188 8.99072L18.2654 2.96118C17.6458 2.34131 16.8218 2 15.9453 2C15.0688 2 14.2449 2.34131 13.6252 2.96118L13.6196 2.96655L7.67432 8.9978C7.25024 9.42798 7.25513 10.1204 7.6853 10.5444C8.11548 10.9685 8.80811 10.9636 9.23218 10.5334Z" fill="#E1E1E1"/>
<path d="M14.9062 8.5625V21.9609C14.9062 22.5649 15.396 23.0547 16 23.0547C16.604 23.0547 17.0938 22.5649 17.0938 21.9609V8.5625C17.0938 7.9585 16.604 7.46875 16 7.46875C15.396 7.46875 14.9062 7.9585 14.9062 8.5625Z" fill="#E1E1E1"/>
<path d="M27.8125 25.625C27.8125 25.021 28.3022 24.5312 28.9062 24.5312C29.5103 24.5312 30 25.021 30 25.625C30 28.0374 28.0374 30 25.625 30H6.375C3.96265 30 2 28.0374 2 25.625C2 25.021 2.48975 24.5312 3.09375 24.5312C3.69775 24.5312 4.1875 25.021 4.1875 25.625C4.1875 26.8313 5.1687 27.8125 6.375 27.8125H25.625C26.8313 27.8125 27.8125 26.8313 27.8125 25.625Z" fill="#E1E1E1"/>
</svg>
