<svg width="32" height="32" viewBox="0 0 32 32" fill="none" xmlns="http://www.w3.org/2000/svg">
<path d="M29.9292 25.9926C29.8061 25.4013 29.2271 25.0217 28.6355 25.1448C28.0441 25.2679 27.6645 25.8471 27.7877 26.4385C27.8586 26.7791 27.7741 27.1283 27.556 27.3965C27.4297 27.5519 27.148 27.8125 26.6811 27.8125H5.31937C4.85245 27.8125 4.57075 27.5519 4.44443 27.3965C4.22628 27.1283 4.14184 26.7791 4.21277 26.4385C5.34786 20.9864 10.1568 17.0037 15.7103 16.8694C15.8065 16.8731 15.9031 16.875 16.0002 16.875C16.0977 16.875 16.1947 16.8731 16.2913 16.8694C20.2032 16.9632 23.8189 18.9446 26.0085 22.2101C26.3449 22.7119 27.0243 22.8459 27.5261 22.5095C28.0278 22.1731 28.1618 21.4937 27.8254 20.992C26.0307 18.3154 23.4247 16.369 20.4533 15.3911C22.264 14.0332 23.4377 11.8698 23.4377 9.4375C23.4377 5.33648 20.1013 2 16.0002 2C11.8992 2 8.56272 5.33648 8.56272 9.4375C8.56272 11.8713 9.73785 14.0358 11.5505 15.3936C9.88972 15.9403 8.3314 16.7911 6.96749 17.913C4.46652 19.9701 2.72762 22.8395 2.07121 25.9926C1.86547 26.9806 2.11195 27.9954 2.74731 28.7767C3.37955 29.5541 4.31706 30 5.31937 30H26.681C27.6834 30 28.6209 29.5541 29.2531 28.7767C29.8886 27.9954 30.135 26.9806 29.9292 25.9926ZM10.7502 9.4375C10.7502 6.54262 13.1053 4.1875 16.0002 4.1875C18.8951 4.1875 21.2502 6.54262 21.2502 9.4375C21.2502 12.2432 19.0378 14.542 16.2659 14.6808C16.1775 14.6792 16.0889 14.6784 16.0002 14.6784C15.912 14.6784 15.8237 14.6792 15.7355 14.6809C12.9632 14.5426 10.7502 12.2436 10.7502 9.4375Z" fill="#E1E1E1"/>
</svg>
