<svg width="32" height="32" viewBox="0 0 32 32" fill="none" xmlns="http://www.w3.org/2000/svg">
<path fill-rule="evenodd" clip-rule="evenodd" d="M2.63283 28.6511C3.25735 29.5083 4.2239 30 5.2842 30H19.2158C20.2761 30 21.2427 29.5083 21.8672 28.6511C22.2363 28.1447 22.456 27.5989 22.5 27C22.5416 26.4334 22 26 21.4465 26C20.5 26 20.542 26.7556 20.1742 27.2783C20 27.5 19.5694 27.8123 19.2158 27.8123H5.2842C4.93069 27.8123 4.60866 27.6484 4.40041 27.3628C4.28103 27.199 4.2112 27.012 4.19362 26.8186C4.18044 26.6746 4.19655 26.5269 4.24294 26.3831C5.32278 23.0249 8.61452 20.6787 12.2495 20.6746C12.8999 20.6753 13.5403 20.751 14.158 20.894C15.1577 21.1296 16.1062 21.5525 16.9617 22.1492C17.4823 22.523 18.1243 23.0376 18.6194 23.5548C18.8763 23.8231 19.223 24 19.5945 24C20.5 24 21.0548 23.0371 20.4748 22.3417C19.3036 20.9376 17.7663 19.8449 16.0357 19.187C17.0515 18.2615 17.7254 16.9668 17.8426 15.5171C19.386 14.0132 21.4094 13.1892 23.5784 13.1892C25.2715 13.1892 26.8977 13.6992 28.2808 14.6638C28.7761 15.0095 29.4578 14.8879 29.8032 14.3926C30.1487 13.897 30.0274 13.2153 29.532 12.8696C28.8472 12.3921 28.1157 12.0024 27.3506 11.7051C28.4737 10.6838 29.1797 9.21191 29.1797 7.57812C29.1797 4.50244 26.6778 2 23.6023 2C20.5269 2 18.0249 4.50244 18.0249 7.57812C18.0249 9.20532 18.7251 10.6721 19.8404 11.6929C19.6878 11.7515 19.5362 11.814 19.3858 11.8801C18.7014 12.1814 18.0579 12.551 17.4597 12.9861C16.6341 10.936 14.6248 9.48535 12.2832 9.48535H12.2168C11.7991 9.48535 11.3919 9.53149 11 9.61914V9.63428C8.54104 10.2156 6.70583 12.4292 6.70583 15.0635C6.70583 16.686 7.40212 18.1489 8.5115 19.1692C5.54519 20.281 3.13991 22.6685 2.16091 25.7134C1.83596 26.7231 2.00808 27.7939 2.63283 28.6511ZM8.89309 15.0635C8.89309 13.2051 10.396 11.6912 12.25 11.6731C14.104 11.6912 15.607 13.2051 15.607 15.0635C15.607 16.9219 14.104 18.4358 12.25 18.4539C10.396 18.4358 8.89309 16.9219 8.89309 15.0635ZM26.9925 7.57812C26.9925 5.7085 25.4717 4.1875 23.6023 4.1875C21.7329 4.1875 20.2122 5.7085 20.2122 7.57812C20.2122 9.44775 21.7329 10.9688 23.6023 10.9688C25.4717 10.9688 26.9925 9.44775 26.9925 7.57812Z" fill="#E1E1E1"/>
</svg>
