<svg width="32" height="32" viewBox="0 0 32 32" fill="none" xmlns="http://www.w3.org/2000/svg">
<path d="M25.9075 6.10048C23.2684 3.45627 19.7595 2 16.0273 2C16.0212 2 16.0152 2.00005 16.0092 2.00016C15.997 2.00005 15.9849 2 15.9727 2C12.2405 2 8.73165 3.45627 6.09248 6.10048C3.45343 8.74479 2 12.2605 2 16C2 19.7395 3.45343 23.2552 6.09248 25.8995C8.73165 28.5437 12.2405 30 15.9727 30C15.9849 30 15.997 29.9999 16.0092 29.9998C16.0153 29.9999 16.0213 30 16.0273 30C18.4122 30 20.7669 29.3871 22.8368 28.2276C23.363 27.9328 23.5511 27.2665 23.2569 26.7392C22.9627 26.2119 22.2976 26.0235 21.7714 26.3183C21.4686 26.4879 21.1585 26.6436 20.8422 26.7852C21.0739 26.4236 21.2946 26.0333 21.5032 25.6152C22.663 23.2911 23.3545 20.2986 23.483 17.0937H27.7666C27.596 18.9466 26.9934 20.7299 25.9983 22.3059C25.676 22.8164 25.8277 23.492 26.3372 23.8149C26.5183 23.9298 26.7202 23.9846 26.9198 23.9846C27.2816 23.9846 27.6356 23.8044 27.8433 23.4754C29.2543 21.2408 30 18.6558 30 16C30 12.2605 28.5466 8.74479 25.9075 6.10048ZM11.0781 5.25423C10.8556 5.6047 10.6433 5.98185 10.4422 6.3848C10.212 6.84612 10.0003 7.33368 9.80779 7.84403C9.13404 7.714 8.49698 7.56261 7.9074 7.39181C8.83605 6.51774 9.90573 5.79248 11.0781 5.25423ZM11.3156 10.3008C12.4524 10.4453 13.6498 10.5368 14.881 10.5709V14.9062H10.6473C10.7178 13.2761 10.9456 11.7167 11.3156 10.3008ZM6.34552 9.18868C7.19099 9.48627 8.1355 9.74063 9.15433 9.94753C8.76791 11.4892 8.53215 13.1665 8.46242 14.9062H4.23333C4.42807 12.7905 5.1821 10.8345 6.34552 9.18868ZM4.23327 17.0937H8.46237C8.53138 18.8147 8.76271 20.4744 9.14175 22.0022C8.11499 22.211 7.16354 22.4676 6.31484 22.7678C5.16887 21.131 4.42632 19.1909 4.23327 17.0937ZM7.86157 24.5649C8.45963 24.3887 9.10462 24.2336 9.78706 24.101C9.98509 24.6313 10.2037 25.1374 10.4422 25.6152C10.6433 26.0182 10.8556 26.3953 11.0781 26.7458C9.88637 26.1987 8.80083 25.4583 7.86157 24.5649ZM14.8811 27.5336C13.9822 27.0774 13.113 26.076 12.3949 24.6369C12.2555 24.3574 12.1237 24.0663 11.9997 23.7647C12.9238 23.66 13.8902 23.5918 14.8811 23.5628V27.5336ZM14.8811 21.3746C13.6482 21.4091 12.4454 21.5018 11.3024 21.6479C10.9401 20.2457 10.717 18.7042 10.6473 17.0937H14.8811V21.3746ZM14.8811 8.38206C13.9024 8.35263 12.9427 8.28398 12.0228 8.17959C12.14 7.89778 12.2641 7.62535 12.395 7.3631C13.113 5.92398 13.9822 4.92262 14.8811 4.4664V8.38206ZM17.0643 4.4664C17.9632 4.92262 18.8324 5.92404 19.5505 7.3631C19.6813 7.62546 19.8055 7.898 19.9228 8.17998C19.0032 8.28425 18.0437 8.3528 17.0643 8.38217V4.4664ZM19.5505 24.6369C18.8324 26.076 17.9632 27.0773 17.0643 27.5336V23.5627C18.0511 23.5913 19.014 23.6591 19.9454 23.7654C19.8216 24.0668 19.6898 24.3577 19.5505 24.6369ZM20.6434 21.6466C19.4916 21.4992 18.294 21.4081 17.0643 21.3743V17.0938H21.2981C21.2285 18.7037 21.0054 20.2447 20.6434 21.6466ZM17.0643 14.9062V10.5709C18.2963 10.5369 19.4935 10.4455 20.6298 10.3012C20.9999 11.717 21.2277 13.2763 21.2981 14.9063L17.0643 14.9062ZM21.5032 6.3848C21.2954 5.96848 21.0757 5.57966 20.8451 5.21933C22.0422 5.75851 23.1339 6.4922 24.0799 7.37992C23.4786 7.55587 22.8275 7.71132 22.1378 7.84447C21.9453 7.3339 21.7335 6.84612 21.5032 6.3848ZM23.4831 14.9062C23.4133 13.1666 23.1776 11.4895 22.7913 9.94791C23.8276 9.73745 24.787 9.47778 25.6436 9.17334C26.8132 10.8224 27.5713 12.7839 27.7667 14.9063L23.4831 14.9062Z" fill="#E1E1E1"/>
</svg>
