<svg width="32" height="32" viewBox="0 0 32 32" fill="none" xmlns="http://www.w3.org/2000/svg">
<path d="M26.6883 4.18745L18.2243 4.24812C17.6203 4.25249 17.1271 3.76626 17.1227 3.16223C17.1184 2.55812 17.6046 2.06497 18.2086 2.06063L26.6773 2.00004L26.6851 2C27.5616 1.99996 28.3856 2.3413 29.0053 2.96103C29.6251 3.58075 29.9664 4.40478 29.9664 5.28123L29.9831 13.8252C29.9843 14.4293 29.4956 14.9199 28.8915 14.9211C28.5887 14.9217 28.3143 14.7991 28.1159 14.6007C27.9184 14.4033 27.7962 14.1308 27.7956 13.8295L27.7788 5.28336C27.7788 4.98908 27.6651 4.71441 27.4585 4.50783C27.2527 4.30199 26.9793 4.18826 26.6883 4.18745Z" fill="#E1E1E1"/>
<path d="M14.1561 16.3409L23.6302 6.86671C24.0574 6.43956 24.7499 6.43956 25.177 6.86671C25.6042 7.29386 25.6042 7.98636 25.177 8.41351L15.7029 17.8877C15.2758 18.3148 14.5833 18.3148 14.1561 17.8877C13.729 17.4605 13.729 16.768 14.1561 16.3409Z" fill="#E1E1E1"/>
<path d="M27.8125 25.625C27.8125 25.0209 28.3022 24.5312 28.9062 24.5312C29.5103 24.5312 30 25.0209 30 25.625C30 28.0374 28.0374 30 25.625 30H6.375C3.96263 30 2 28.0374 2 25.625C2 25.0209 2.48967 24.5312 3.09375 24.5312C3.69783 24.5312 4.1875 25.0209 4.1875 25.625C4.1875 26.8312 5.16881 27.8125 6.375 27.8125H25.625C26.8312 27.8125 27.8125 26.8312 27.8125 25.625Z" fill="#E1E1E1"/>
</svg>
